<svg xmlns="http://www.w3.org/2000/svg" width="219" height="220" viewBox="0 0 219 220">
  <g id="Group_309" data-name="Group 309" transform="translate(-674 -971)">
    <rect id="Rectangle_389" data-name="Rectangle 389" width="219" height="220" rx="109.5" transform="translate(674 971)" fill="#fff"/>
    <text id="AMAGER" transform="translate(747.5 1132)" fill="#d17a23" font-size="17" font-family="WorkSans-SemiBold, Work Sans" font-weight="600"><tspan x="0" y="0">AMAGER</tspan></text>
    <path id="building-svgrepo-com" d="M88.49,90.221h0l-33.531-.064H19.076a1.281,1.281,0,0,1-1.282-1.282V31.22a1.281,1.281,0,0,1,1.282-1.282h17.9V1.282A1.281,1.281,0,0,1,38.253,0H88.49a1.281,1.281,0,0,1,1.282,1.282V88.939a1.281,1.281,0,0,1-1.281,1.282ZM56.24,87.6l30.968.059V2.563H39.535V29.939H54.959A1.281,1.281,0,0,1,56.24,31.22Zm-35.883,0h33.32V32.5H20.357Zm29.364-8.325H39.582A1.281,1.281,0,0,1,38.3,77.987V72.053a1.281,1.281,0,0,1,1.282-1.282H49.721A1.281,1.281,0,0,1,51,72.053v5.934A1.281,1.281,0,0,1,49.721,79.268ZM40.863,76.7h7.576v-3.37H40.863Zm-6.41,2.563H24.314a1.281,1.281,0,0,1-1.282-1.282V72.053a1.281,1.281,0,0,1,1.282-1.282H34.453a1.281,1.281,0,0,1,1.282,1.282v5.934A1.281,1.281,0,0,1,34.453,79.268ZM25.6,76.7h7.576v-3.37H25.6Zm54.184,1.9h-4.9A1.281,1.281,0,0,1,73.6,77.328V72a1.281,1.281,0,0,1,1.282-1.282h4.9A1.281,1.281,0,0,1,81.061,72v5.327A1.281,1.281,0,0,1,79.78,78.61Zm-3.62-2.563H78.5V73.283H76.16ZM65.642,78.61h-4.9a1.281,1.281,0,0,1-1.282-1.282V72A1.281,1.281,0,0,1,60.74,70.72h4.9A1.281,1.281,0,0,1,66.924,72v5.327A1.281,1.281,0,0,1,65.642,78.61Zm-3.621-2.563h2.339V73.283H62.022Zm-12.3-8.373H39.582A1.281,1.281,0,0,1,38.3,66.393V60.459a1.281,1.281,0,0,1,1.282-1.282H49.721A1.281,1.281,0,0,1,51,60.459v5.934A1.282,1.282,0,0,1,49.721,67.674Zm-8.858-2.563h7.576v-3.37H40.863Zm-6.41,2.563H24.314a1.281,1.281,0,0,1-1.282-1.282V60.459a1.281,1.281,0,0,1,1.282-1.282H34.453a1.281,1.281,0,0,1,1.282,1.282v5.934A1.282,1.282,0,0,1,34.453,67.674ZM25.6,65.111h7.576v-3.37H25.6Zm54.184.729h-4.9A1.281,1.281,0,0,1,73.6,64.559V59.232a1.281,1.281,0,0,1,1.282-1.282h4.9a1.281,1.281,0,0,1,1.282,1.282v5.327A1.281,1.281,0,0,1,79.78,65.84Zm-3.62-2.563H78.5V60.513H76.16ZM65.642,65.84h-4.9a1.281,1.281,0,0,1-1.282-1.282V59.232A1.281,1.281,0,0,1,60.74,57.95h4.9a1.281,1.281,0,0,1,1.282,1.282v5.327A1.281,1.281,0,0,1,65.642,65.84Zm-3.621-2.563h2.339V60.513H62.022Zm-12.3-7.2H39.582A1.281,1.281,0,0,1,38.3,54.8V48.865a1.281,1.281,0,0,1,1.282-1.282H49.721A1.281,1.281,0,0,1,51,48.865V54.8A1.281,1.281,0,0,1,49.721,56.08Zm-8.858-2.563h7.576v-3.37H40.863Zm-6.41,2.563H24.314A1.281,1.281,0,0,1,23.032,54.8V48.865a1.281,1.281,0,0,1,1.282-1.282H34.453a1.281,1.281,0,0,1,1.282,1.282V54.8A1.281,1.281,0,0,1,34.453,56.08ZM25.6,53.517h7.576v-3.37H25.6ZM79.78,53.07h-4.9A1.281,1.281,0,0,1,73.6,51.789V46.462a1.281,1.281,0,0,1,1.282-1.282h4.9a1.281,1.281,0,0,1,1.282,1.282v5.327A1.281,1.281,0,0,1,79.78,53.07Zm-3.62-2.563H78.5V47.743H76.16ZM65.642,53.07h-4.9a1.281,1.281,0,0,1-1.282-1.282V46.462a1.281,1.281,0,0,1,1.282-1.282h4.9a1.281,1.281,0,0,1,1.282,1.282v5.327A1.281,1.281,0,0,1,65.642,53.07Zm-3.621-2.563h2.339V47.743H62.022Zm-12.3-6.022H39.582A1.281,1.281,0,0,1,38.3,43.2V37.27a1.281,1.281,0,0,1,1.282-1.282H49.721A1.281,1.281,0,0,1,51,37.27V43.2A1.281,1.281,0,0,1,49.721,44.485Zm-8.858-2.563h7.576V38.551H40.863Zm-6.41,2.563H24.314A1.281,1.281,0,0,1,23.032,43.2V37.27a1.281,1.281,0,0,1,1.282-1.282H34.453a1.281,1.281,0,0,1,1.282,1.282V43.2A1.281,1.281,0,0,1,34.453,44.485ZM25.6,41.922h7.576V38.551H25.6ZM79.78,40.3h-4.9A1.281,1.281,0,0,1,73.6,39.019V33.692a1.281,1.281,0,0,1,1.282-1.282h4.9a1.281,1.281,0,0,1,1.282,1.282v5.327A1.281,1.281,0,0,1,79.78,40.3Zm-3.62-2.563H78.5V34.974H76.16ZM65.642,40.3h-4.9a1.281,1.281,0,0,1-1.282-1.282V33.692a1.281,1.281,0,0,1,1.282-1.282h4.9a1.281,1.281,0,0,1,1.282,1.282v5.327A1.281,1.281,0,0,1,65.642,40.3Zm-3.621-2.563h2.339V34.974H62.022ZM79.78,27.531h-4.9A1.281,1.281,0,0,1,73.6,26.25V20.922a1.281,1.281,0,0,1,1.282-1.282h4.9a1.281,1.281,0,0,1,1.282,1.282V26.25A1.282,1.282,0,0,1,79.78,27.531Zm-3.62-2.563H78.5V22.2H76.16ZM65.642,27.531h-4.9a1.281,1.281,0,0,1-1.282-1.282V20.922a1.281,1.281,0,0,1,1.282-1.282h4.9a1.281,1.281,0,0,1,1.282,1.282V26.25A1.282,1.282,0,0,1,65.642,27.531Zm-3.621-2.563h2.339V22.2H62.022ZM51.5,27.531H46.6a1.281,1.281,0,0,1-1.282-1.282V20.922A1.281,1.281,0,0,1,46.6,19.641h4.9a1.281,1.281,0,0,1,1.282,1.282V26.25A1.282,1.282,0,0,1,51.5,27.531Zm-3.62-2.563h2.339V22.2H47.884Zm31.9-10.207h-4.9A1.281,1.281,0,0,1,73.6,13.479V8.153a1.281,1.281,0,0,1,1.282-1.282h4.9a1.281,1.281,0,0,1,1.282,1.282V13.48A1.281,1.281,0,0,1,79.78,14.761ZM76.16,12.2H78.5V9.434H76.16ZM65.642,14.761h-4.9a1.281,1.281,0,0,1-1.282-1.282V8.153A1.281,1.281,0,0,1,60.74,6.871h4.9a1.281,1.281,0,0,1,1.282,1.282V13.48A1.281,1.281,0,0,1,65.642,14.761ZM62.022,12.2h2.339V9.434H62.022ZM51.5,14.761H46.6a1.281,1.281,0,0,1-1.282-1.282V8.153A1.281,1.281,0,0,1,46.6,6.871h4.9a1.281,1.281,0,0,1,1.282,1.282V13.48A1.281,1.281,0,0,1,51.5,14.761ZM47.884,12.2h2.339V9.434H47.884Z" transform="translate(730.206 1016.779)" fill="#d17a23"/>
  </g>
</svg>
