<svg xmlns="http://www.w3.org/2000/svg" width="498" height="499" viewBox="0 0 498 499">
  <g id="Group_163" data-name="Group 163" transform="translate(0.235 0)">
    <rect id="Rectangle_389" data-name="Rectangle 389" width="498" height="499" rx="249" transform="translate(-0.235 0)" fill="#fff"/>
    <g id="Group_159" data-name="Group 159" transform="translate(88.846 99.965)">
      <g id="building-svgrepo-com_2_" data-name="building-svgrepo-com (2)" transform="translate(48.648 0)">
        <g id="Group_136" data-name="Group 136">
          <g id="Group_135" data-name="Group 135">
            <path id="Path_257" data-name="Path 257" d="M226.878,477.867H123.171a3.705,3.705,0,0,0-3.7,3.7v7.408a3.7,3.7,0,0,0,7.407,0v-3.7h100a3.7,3.7,0,0,0,0-7.408Z" transform="translate(-67.613 -270.453)" fill="#d17a23"/>
            <path id="Path_258" data-name="Path 258" d="M187.733,179.527a3.705,3.705,0,0,0,3.7,3.7h14.816a3.705,3.705,0,0,0,3.7-3.7V157.3a3.705,3.705,0,0,0-3.7-3.7H191.437a3.705,3.705,0,0,0-3.7,3.7v22.223Zm7.408-18.519h7.408v14.815h-7.408Z" transform="translate(-106.249 -86.931)" fill="#d17a23"/>
            <path id="Path_259" data-name="Path 259" d="M48.15,102.4H3.7A3.705,3.705,0,0,0,0,106.1V180.18a3.7,3.7,0,0,0,7.407,0V109.808H48.15a3.7,3.7,0,0,0,0-7.408Z" transform="translate(0 -57.954)" fill="#d17a23"/>
            <path id="Path_260" data-name="Path 260" d="M409.6,384.327a3.705,3.705,0,0,0,3.7,3.7h14.815a3.705,3.705,0,0,0,3.7-3.7V362.1a3.705,3.705,0,0,0-3.7-3.7H413.3a3.705,3.705,0,0,0-3.7,3.7Zm7.408-18.519h7.408v14.815h-7.408Z" transform="translate(-231.816 -202.839)" fill="#d17a23"/>
            <path id="Path_261" data-name="Path 261" d="M18.519,307.2C.211,307.2,0,354.868,0,355.35a18.551,18.551,0,0,0,14.815,18.145v18.893a3.7,3.7,0,0,0,7.407,0V373.495A18.551,18.551,0,0,0,37.038,355.35C37.038,354.868,36.827,307.2,18.519,307.2Zm0,59.261A11.125,11.125,0,0,1,7.408,355.35c0-18.453,4.956-40.742,11.111-40.742S29.631,336.9,29.631,355.35A11.125,11.125,0,0,1,18.519,366.461Z" transform="translate(0 -173.862)" fill="#d17a23"/>
            <path id="Path_262" data-name="Path 262" d="M69.719,256H54.9a3.705,3.705,0,0,0-3.7,3.7v7.408a3.7,3.7,0,1,0,7.407,0v-3.7h7.408v18.519a3.7,3.7,0,0,0,7.407,0V259.7A3.7,3.7,0,0,0,69.719,256Z" transform="translate(-28.977 -144.885)" fill="#d17a23"/>
            <path id="Path_263" data-name="Path 263" d="M413.3,183.231h14.815a3.705,3.705,0,0,0,3.7-3.7V157.3a3.705,3.705,0,0,0-3.7-3.7H413.3a3.705,3.705,0,0,0-3.7,3.7v22.223A3.705,3.705,0,0,0,413.3,183.231Zm3.7-22.223h7.408v14.815h-7.408Z" transform="translate(-231.816 -86.932)" fill="#d17a23"/>
            <path id="Path_264" data-name="Path 264" d="M69.719,153.6H54.9a3.705,3.705,0,0,0-3.7,3.7v22.223a3.705,3.705,0,0,0,3.7,3.7H69.719a3.705,3.705,0,0,0,3.7-3.7V157.3A3.7,3.7,0,0,0,69.719,153.6Zm-3.7,22.223H58.608V161.008h7.408v14.815Z" transform="translate(-28.977 -86.931)" fill="#d17a23"/>
            <path id="Path_265" data-name="Path 265" d="M273.067,179.527a3.705,3.705,0,0,0,3.7,3.7h14.815a3.705,3.705,0,0,0,3.7-3.7V157.3a3.705,3.705,0,0,0-3.7-3.7H276.771a3.705,3.705,0,0,0-3.7,3.7Zm7.407-18.519h7.408v14.815h-7.408Z" transform="translate(-154.545 -86.931)" fill="#d17a23"/>
            <path id="Path_266" data-name="Path 266" d="M440.684,102.4H396.238a3.7,3.7,0,1,0,0,7.407H436.98V258.642a10.582,10.582,0,0,0-5.607-.515,14.792,14.792,0,0,0-25.823,0,10.89,10.89,0,0,0-1.9-.167,11.111,11.111,0,0,0,0,22.223h29.63a11.125,11.125,0,0,0,11.112-11.111V106.1A3.705,3.705,0,0,0,440.684,102.4Zm-7.408,170.376H403.645a3.7,3.7,0,0,1,0-7.407,3.66,3.66,0,0,1,2.008.6,3.7,3.7,0,0,0,5.615-2.278,7.379,7.379,0,0,1,14.386,0,3.7,3.7,0,0,0,5.615,2.278,3.777,3.777,0,0,1,5.711,3.1A3.71,3.71,0,0,1,433.276,272.776Z" transform="translate(-222.158 -57.954)" fill="#d17a23"/>
            <path id="Path_267" data-name="Path 267" d="M276.771,80.831h14.815a3.705,3.705,0,0,0,3.7-3.7V54.9a3.705,3.705,0,0,0-3.7-3.7H276.771a3.705,3.705,0,0,0-3.7,3.7V77.128A3.705,3.705,0,0,0,276.771,80.831Zm3.7-22.223h7.408V73.424h-7.408Z" transform="translate(-154.545 -28.978)" fill="#d17a23"/>
            <path id="Path_268" data-name="Path 268" d="M273.067,281.927a3.705,3.705,0,0,0,3.7,3.7h14.815a3.705,3.705,0,0,0,3.7-3.7V259.7a3.705,3.705,0,0,0-3.7-3.7H276.771a3.705,3.705,0,0,0-3.7,3.7Zm7.407-18.519h7.408v14.815h-7.408Z" transform="translate(-154.545 -144.885)" fill="#d17a23"/>
            <path id="Path_269" data-name="Path 269" d="M191.438,80.831h14.815a3.705,3.705,0,0,0,3.7-3.7V54.9a3.705,3.705,0,0,0-3.7-3.7H191.438a3.705,3.705,0,0,0-3.7,3.7V77.128A3.7,3.7,0,0,0,191.438,80.831Zm3.7-22.223h7.408V73.424h-7.408Z" transform="translate(-106.25 -28.978)" fill="#d17a23"/>
            <path id="Path_270" data-name="Path 270" d="M248.54,410.734a3.7,3.7,0,1,0,5.26,0A3.895,3.895,0,0,0,248.54,410.734Z" transform="translate(-140.055 -231.877)" fill="#d17a23"/>
            <path id="Path_271" data-name="Path 271" d="M187.733,281.927a3.705,3.705,0,0,0,3.7,3.7h14.816a3.705,3.705,0,0,0,3.7-3.7V259.7a3.705,3.705,0,0,0-3.7-3.7H191.437a3.705,3.705,0,0,0-3.7,3.7v22.223Zm7.408-18.519h7.408v14.815h-7.408Z" transform="translate(-106.249 -144.885)" fill="#d17a23"/>
            <path id="Path_272" data-name="Path 272" d="M170.667,362.1a3.705,3.705,0,0,0,3.7,3.7h11.112v33.334a3.7,3.7,0,0,0,7.407,0V365.807H222.52v33.334a3.7,3.7,0,1,0,7.407,0V365.807h11.111a3.7,3.7,0,0,0,0-7.407H174.371A3.705,3.705,0,0,0,170.667,362.1Z" transform="translate(-96.59 -202.839)" fill="#d17a23"/>
            <path id="Path_273" data-name="Path 273" d="M409.6,281.927a3.705,3.705,0,0,0,3.7,3.7h14.815a3.705,3.705,0,0,0,3.7-3.7V259.7a3.705,3.705,0,0,0-3.7-3.7H413.3a3.705,3.705,0,0,0-3.7,3.7Zm7.408-18.519h7.408v14.815h-7.408Z" transform="translate(-231.816 -144.885)" fill="#d17a23"/>
            <path id="Path_274" data-name="Path 274" d="M236.537,0h-96.3a3.705,3.705,0,0,0-3.7,3.7V196.3a3.7,3.7,0,1,0,7.407,0V7.407h88.892V196.3a3.7,3.7,0,0,0,7.407,0V3.7A3.7,3.7,0,0,0,236.537,0Z" transform="translate(-77.273)" fill="#d17a23"/>
          </g>
        </g>
      </g>
      <text id="FREDERIKSBERG" transform="translate(0 287.118)" fill="#d17a23" font-size="38" font-family="WorkSans-SemiBold, Work Sans" font-weight="600"><tspan x="0" y="0">FREDERIKSBERG</tspan></text>
    </g>
  </g>
</svg>
