<svg xmlns="http://www.w3.org/2000/svg" width="503" height="503" viewBox="0 0 503 503">
  <g id="Group_296" data-name="Group 296" transform="translate(-438.999 -2054.001)">
    <g id="Group_294" data-name="Group 294" transform="translate(439 2054)">
      <path id="Path_373" data-name="Path 373" d="M251.5,0C390.4,0,503,112.6,503,251.5S390.4,503,251.5,503,0,390.4,0,251.5,112.6,0,251.5,0Z" transform="translate(-0.001 0.001)" fill="#c72"/>
      <g id="Group_161" data-name="Group 161" transform="translate(146.248 340.135)">
        <g id="Group_160" data-name="Group 160" transform="translate(0 0)">
          <text id="HELE_KBH" data-name="HELE KBH" transform="translate(-0.249 37.867)" fill="#fff" font-size="41" font-family="WorkSans-SemiBold, Work Sans" font-weight="600"><tspan x="0" y="0">HELE KBH</tspan></text>
        </g>
      </g>
    </g>
    <g id="city-svgrepo-com_1_" data-name="city-svgrepo-com (1)" transform="translate(544.424 2142.264)">
      <path id="Path_369" data-name="Path 369" d="M0,335.381H8.7V199.1H97.553V335.381h8.7V192.067H0Z" transform="translate(0.001 -106.039)" fill="#fff"/>
      <path id="Path_370" data-name="Path 370" d="M254.7.046H144.017V82.422h8.7V7.078H246V111.167H223.832V229.389h8.7V118.2h71.117v111.19h8.7V111.167H254.7Z" transform="translate(-64.2 -0.047)" fill="#fff"/>
      <rect id="Rectangle_443" data-name="Rectangle 443" width="79.816" height="7.032" transform="translate(13.218 100.367)" fill="#fff"/>
      <rect id="Rectangle_444" data-name="Rectangle 444" width="84.252" height="7.032" transform="translate(93.033 14.337)" fill="#fff"/>
      <rect id="Rectangle_445" data-name="Rectangle 445" width="8.698" height="14.338" transform="translate(22.17 118.223)" fill="#fff"/>
      <rect id="Rectangle_446" data-name="Rectangle 446" width="8.698" height="14.338" transform="translate(48.775 118.223)" fill="#fff"/>
      <rect id="Rectangle_447" data-name="Rectangle 447" width="8.698" height="14.338" transform="translate(75.381 118.223)" fill="#fff"/>
      <rect id="Rectangle_448" data-name="Rectangle 448" width="8.698" height="14.338" transform="translate(22.17 146.898)" fill="#fff"/>
      <rect id="Rectangle_449" data-name="Rectangle 449" width="8.698" height="14.338" transform="translate(48.775 146.898)" fill="#fff"/>
      <rect id="Rectangle_450" data-name="Rectangle 450" width="8.698" height="14.338" transform="translate(75.381 146.898)" fill="#fff"/>
      <rect id="Rectangle_451" data-name="Rectangle 451" width="8.698" height="14.338" transform="translate(22.17 175.573)" fill="#fff"/>
      <rect id="Rectangle_452" data-name="Rectangle 452" width="8.698" height="14.338" transform="translate(48.775 175.573)" fill="#fff"/>
      <rect id="Rectangle_453" data-name="Rectangle 453" width="8.698" height="14.338" transform="translate(75.381 175.573)" fill="#fff"/>
      <rect id="Rectangle_454" data-name="Rectangle 454" width="8.698" height="14.338" transform="translate(22.17 204.248)" fill="#fff"/>
      <rect id="Rectangle_455" data-name="Rectangle 455" width="8.698" height="14.338" transform="translate(48.775 204.248)" fill="#fff"/>
      <rect id="Rectangle_456" data-name="Rectangle 456" width="8.698" height="14.338" transform="translate(75.381 204.248)" fill="#fff"/>
      <path id="Path_371" data-name="Path 371" d="M251.231,64.053h-75.21V89.008h75.211V64.053Zm-8.7,17.923H184.719V71.085h57.814v10.89Z" transform="translate(-78.467 -35.378)" fill="#fff"/>
      <rect id="Rectangle_457" data-name="Rectangle 457" width="8.698" height="14.338" transform="translate(97.556 60.868)" fill="#fff"/>
      <rect id="Rectangle_458" data-name="Rectangle 458" width="8.698" height="14.338" transform="translate(119.725 60.868)" fill="#fff"/>
      <rect id="Rectangle_459" data-name="Rectangle 459" width="8.698" height="14.338" transform="translate(141.895 60.868)" fill="#fff"/>
      <rect id="Rectangle_460" data-name="Rectangle 460" width="8.698" height="14.338" transform="translate(164.064 60.868)" fill="#fff"/>
      <rect id="Rectangle_461" data-name="Rectangle 461" width="8.698" height="14.338" transform="translate(119.725 85.957)" fill="#fff"/>
      <rect id="Rectangle_462" data-name="Rectangle 462" width="8.698" height="14.338" transform="translate(141.895 85.957)" fill="#fff"/>
      <rect id="Rectangle_463" data-name="Rectangle 463" width="8.698" height="14.338" transform="translate(119.725 111.051)" fill="#fff"/>
      <rect id="Rectangle_464" data-name="Rectangle 464" width="8.698" height="14.338" transform="translate(141.895 111.051)" fill="#fff"/>
      <rect id="Rectangle_465" data-name="Rectangle 465" width="8.698" height="14.338" transform="translate(119.725 136.144)" fill="#fff"/>
      <rect id="Rectangle_466" data-name="Rectangle 466" width="8.698" height="14.338" transform="translate(141.895 136.144)" fill="#fff"/>
      <rect id="Rectangle_467" data-name="Rectangle 467" width="8.698" height="14.338" transform="translate(119.725 161.233)" fill="#fff"/>
      <rect id="Rectangle_468" data-name="Rectangle 468" width="8.698" height="14.338" transform="translate(141.895 161.233)" fill="#fff"/>
      <rect id="Rectangle_469" data-name="Rectangle 469" width="8.698" height="14.338" transform="translate(119.725 186.327)" fill="#fff"/>
      <rect id="Rectangle_470" data-name="Rectangle 470" width="8.698" height="14.338" transform="translate(141.895 186.327)" fill="#fff"/>
      <rect id="Rectangle_471" data-name="Rectangle 471" width="8.698" height="14.338" transform="translate(119.725 211.42)" fill="#fff"/>
      <rect id="Rectangle_472" data-name="Rectangle 472" width="8.698" height="14.338" transform="translate(141.895 211.42)" fill="#fff"/>
      <rect id="Rectangle_473" data-name="Rectangle 473" width="8.698" height="14.338" transform="translate(164.064 85.957)" fill="#fff"/>
      <rect id="Rectangle_474" data-name="Rectangle 474" width="62.077" height="7.032" transform="translate(172.849 125.461)" fill="#fff"/>
      <rect id="Rectangle_475" data-name="Rectangle 475" width="8.698" height="89.611" transform="translate(181.803 139.73)" fill="#fff"/>
      <rect id="Rectangle_476" data-name="Rectangle 476" width="8.698" height="89.611" transform="translate(199.542 139.73)" fill="#fff"/>
      <rect id="Rectangle_477" data-name="Rectangle 477" width="8.698" height="89.611" transform="translate(217.275 139.73)" fill="#fff"/>
      <path id="Path_372" data-name="Path 372" d="M447.682,27.264l-22.2,14.579.031-3.587-8.7-.05-.081,9.382-8.958,5.883V23.894h-8.7V59.186l-9.038,5.937V45.4h-8.7V70.836l-13.3,8.738v41.1h8.7V88.348h26.775v7.169H439.03l.1,147.037,8.7,0ZM403.515,81.316H379.183l59.811-39.284.022,32.115h-35.5v7.169Zm8.7,7.169V81.178H439.02l0,7.306Z" transform="translate(-164.068 -13.21)" fill="#fff"/>
      <rect id="Rectangle_478" data-name="Rectangle 478" width="8.698" height="14.338" transform="translate(257.183 114.637)" fill="#fff"/>
      <rect id="Rectangle_479" data-name="Rectangle 479" width="8.698" height="14.338" transform="translate(257.183 139.73)" fill="#fff"/>
      <rect id="Rectangle_480" data-name="Rectangle 480" width="8.698" height="14.338" transform="translate(257.183 164.819)" fill="#fff"/>
      <rect id="Rectangle_481" data-name="Rectangle 481" width="8.698" height="14.338" transform="translate(257.183 189.913)" fill="#fff"/>
      <rect id="Rectangle_482" data-name="Rectangle 482" width="8.698" height="14.338" transform="translate(257.183 215.002)" fill="#fff"/>
      <rect id="Rectangle_483" data-name="Rectangle 483" width="8.698" height="14.338" transform="translate(257.183 89.543)" fill="#fff"/>
      <rect id="Rectangle_484" data-name="Rectangle 484" width="8.698" height="14.338" transform="translate(239.45 89.543)" fill="#fff"/>
      <rect id="Rectangle_485" data-name="Rectangle 485" width="8.698" height="14.338" transform="translate(221.711 89.543)" fill="#fff"/>
    </g>
  </g>
</svg>
