<svg xmlns="http://www.w3.org/2000/svg" width="499" height="499" viewBox="0 0 499 499">
  <g id="Group_165" data-name="Group 165" transform="translate(0.047 0.039)">
    <rect id="Rectangle_393" data-name="Rectangle 393" width="499" height="499" rx="249.5" transform="translate(-0.047 -0.038)" fill="#d17a23"/>
    <g id="Group_157" data-name="Group 157" transform="translate(110.583 105.667)">
      <g id="building-svgrepo-com_5_" data-name="building-svgrepo-com (5)" transform="translate(23.97 0)">
        <rect id="Rectangle_325" data-name="Rectangle 325" width="52.331" height="7.275" transform="translate(11.116 66.842)" fill="#fff"/>
        <rect id="Rectangle_326" data-name="Rectangle 326" width="82.239" height="7.275" transform="translate(73.146 24.091)" fill="#fff"/>
        <rect id="Rectangle_327" data-name="Rectangle 327" width="7.275" height="14.953" transform="translate(14.953 84.387)" fill="#fff"/>
        <rect id="Rectangle_328" data-name="Rectangle 328" width="7.275" height="14.953" transform="translate(33.641 84.387)" fill="#fff"/>
        <rect id="Rectangle_329" data-name="Rectangle 329" width="7.275" height="14.953" transform="translate(49.961 84.387)" fill="#fff"/>
        <rect id="Rectangle_330" data-name="Rectangle 330" width="7.275" height="14.953" transform="translate(78.508 38.15)" fill="#fff"/>
        <rect id="Rectangle_331" data-name="Rectangle 331" width="7.275" height="14.953" transform="translate(99.92 38.15)" fill="#fff"/>
        <rect id="Rectangle_332" data-name="Rectangle 332" width="7.275" height="14.953" transform="translate(121.331 38.15)" fill="#fff"/>
        <rect id="Rectangle_333" data-name="Rectangle 333" width="7.275" height="14.953" transform="translate(142.742 38.15)" fill="#fff"/>
        <rect id="Rectangle_334" data-name="Rectangle 334" width="7.275" height="14.953" transform="translate(78.508 63.048)" fill="#fff"/>
        <rect id="Rectangle_335" data-name="Rectangle 335" width="7.275" height="14.953" transform="translate(99.92 63.048)" fill="#fff"/>
        <rect id="Rectangle_336" data-name="Rectangle 336" width="7.275" height="14.953" transform="translate(121.331 63.048)" fill="#fff"/>
        <rect id="Rectangle_337" data-name="Rectangle 337" width="7.275" height="14.953" transform="translate(142.742 63.048)" fill="#fff"/>
        <rect id="Rectangle_338" data-name="Rectangle 338" width="7.275" height="14.953" transform="translate(78.508 87.941)" fill="#fff"/>
        <rect id="Rectangle_339" data-name="Rectangle 339" width="7.275" height="14.953" transform="translate(99.92 87.941)" fill="#fff"/>
        <rect id="Rectangle_340" data-name="Rectangle 340" width="7.275" height="14.953" transform="translate(121.331 87.941)" fill="#fff"/>
        <rect id="Rectangle_341" data-name="Rectangle 341" width="7.275" height="14.953" transform="translate(142.742 87.941)" fill="#fff"/>
        <rect id="Rectangle_342" data-name="Rectangle 342" width="7.275" height="14.953" transform="translate(78.508 112.838)" fill="#fff"/>
        <rect id="Rectangle_343" data-name="Rectangle 343" width="7.275" height="14.953" transform="translate(99.92 112.838)" fill="#fff"/>
        <rect id="Rectangle_344" data-name="Rectangle 344" width="7.275" height="14.953" transform="translate(121.331 112.838)" fill="#fff"/>
        <rect id="Rectangle_345" data-name="Rectangle 345" width="7.275" height="14.953" transform="translate(142.742 112.838)" fill="#fff"/>
        <rect id="Rectangle_346" data-name="Rectangle 346" width="7.275" height="14.953" transform="translate(78.508 137.736)" fill="#fff"/>
        <rect id="Rectangle_347" data-name="Rectangle 347" width="7.275" height="14.953" transform="translate(99.92 137.736)" fill="#fff"/>
        <rect id="Rectangle_348" data-name="Rectangle 348" width="7.275" height="14.953" transform="translate(121.331 137.736)" fill="#fff"/>
        <rect id="Rectangle_349" data-name="Rectangle 349" width="7.275" height="14.953" transform="translate(142.742 137.736)" fill="#fff"/>
        <rect id="Rectangle_350" data-name="Rectangle 350" width="7.275" height="14.953" transform="translate(78.508 160.996)" fill="#fff"/>
        <rect id="Rectangle_351" data-name="Rectangle 351" width="7.275" height="14.953" transform="translate(99.92 160.996)" fill="#fff"/>
        <rect id="Rectangle_352" data-name="Rectangle 352" width="7.275" height="14.953" transform="translate(121.331 160.996)" fill="#fff"/>
        <rect id="Rectangle_353" data-name="Rectangle 353" width="7.275" height="14.953" transform="translate(142.742 160.996)" fill="#fff"/>
        <rect id="Rectangle_354" data-name="Rectangle 354" width="7.275" height="14.953" transform="translate(78.508 187.164)" fill="#fff"/>
        <rect id="Rectangle_355" data-name="Rectangle 355" width="7.275" height="14.953" transform="translate(99.92 187.164)" fill="#fff"/>
        <rect id="Rectangle_356" data-name="Rectangle 356" width="7.275" height="14.953" transform="translate(121.331 187.164)" fill="#fff"/>
        <rect id="Rectangle_357" data-name="Rectangle 357" width="7.275" height="14.953" transform="translate(142.742 187.164)" fill="#fff"/>
        <rect id="Rectangle_358" data-name="Rectangle 358" width="7.275" height="14.953" transform="translate(14.953 109.28)" fill="#fff"/>
        <rect id="Rectangle_359" data-name="Rectangle 359" width="7.275" height="14.953" transform="translate(33.641 109.28)" fill="#fff"/>
        <rect id="Rectangle_360" data-name="Rectangle 360" width="7.275" height="14.953" transform="translate(49.961 109.28)" fill="#fff"/>
        <rect id="Rectangle_361" data-name="Rectangle 361" width="7.275" height="14.953" transform="translate(14.953 134.178)" fill="#fff"/>
        <rect id="Rectangle_362" data-name="Rectangle 362" width="7.275" height="14.953" transform="translate(33.641 134.178)" fill="#fff"/>
        <rect id="Rectangle_363" data-name="Rectangle 363" width="7.275" height="14.953" transform="translate(49.961 134.178)" fill="#fff"/>
        <rect id="Rectangle_364" data-name="Rectangle 364" width="7.275" height="14.953" transform="translate(14.953 159.076)" fill="#fff"/>
        <rect id="Rectangle_365" data-name="Rectangle 365" width="7.275" height="14.953" transform="translate(33.641 159.076)" fill="#fff"/>
        <rect id="Rectangle_366" data-name="Rectangle 366" width="7.275" height="14.953" transform="translate(49.961 159.076)" fill="#fff"/>
        <rect id="Rectangle_367" data-name="Rectangle 367" width="7.275" height="14.953" transform="translate(14.953 183.424)" fill="#fff"/>
        <rect id="Rectangle_368" data-name="Rectangle 368" width="7.275" height="14.953" transform="translate(33.641 183.424)" fill="#fff"/>
        <rect id="Rectangle_369" data-name="Rectangle 369" width="7.275" height="14.953" transform="translate(49.961 183.424)" fill="#fff"/>
        <rect id="Rectangle_370" data-name="Rectangle 370" width="52.331" height="7.275" transform="translate(165.08 66.842)" fill="#fff"/>
        <rect id="Rectangle_371" data-name="Rectangle 371" width="7.275" height="14.953" transform="translate(206.298 84.387)" fill="#fff"/>
        <rect id="Rectangle_372" data-name="Rectangle 372" width="7.275" height="14.953" transform="translate(187.61 84.387)" fill="#fff"/>
        <rect id="Rectangle_373" data-name="Rectangle 373" width="7.275" height="14.953" transform="translate(171.289 84.387)" fill="#fff"/>
        <rect id="Rectangle_374" data-name="Rectangle 374" width="7.275" height="14.953" transform="translate(206.298 109.28)" fill="#fff"/>
        <rect id="Rectangle_375" data-name="Rectangle 375" width="7.275" height="14.953" transform="translate(187.61 109.28)" fill="#fff"/>
        <rect id="Rectangle_376" data-name="Rectangle 376" width="7.275" height="14.953" transform="translate(171.289 109.28)" fill="#fff"/>
        <rect id="Rectangle_377" data-name="Rectangle 377" width="7.275" height="14.953" transform="translate(206.298 134.178)" fill="#fff"/>
        <rect id="Rectangle_378" data-name="Rectangle 378" width="7.275" height="14.953" transform="translate(187.61 134.178)" fill="#fff"/>
        <rect id="Rectangle_379" data-name="Rectangle 379" width="7.275" height="14.953" transform="translate(171.289 134.178)" fill="#fff"/>
        <rect id="Rectangle_380" data-name="Rectangle 380" width="7.275" height="14.953" transform="translate(206.298 159.076)" fill="#fff"/>
        <rect id="Rectangle_381" data-name="Rectangle 381" width="7.275" height="14.953" transform="translate(187.61 159.076)" fill="#fff"/>
        <rect id="Rectangle_382" data-name="Rectangle 382" width="7.275" height="14.953" transform="translate(171.289 159.076)" fill="#fff"/>
        <rect id="Rectangle_383" data-name="Rectangle 383" width="7.275" height="14.953" transform="translate(206.298 183.424)" fill="#fff"/>
        <rect id="Rectangle_384" data-name="Rectangle 384" width="7.275" height="14.953" transform="translate(187.61 183.424)" fill="#fff"/>
        <rect id="Rectangle_385" data-name="Rectangle 385" width="7.275" height="14.953" transform="translate(171.289 183.424)" fill="#fff"/>
        <path id="Path_296" data-name="Path 296" d="M248.619,12.539c-52.158,0-51.936-.068-104.666,0v7.275H248.619V12.539Z" transform="translate(-82.022 -12.508)" fill="#fff"/>
        <rect id="Rectangle_386" data-name="Rectangle 386" width="7.275" height="7.476" transform="translate(178.43 23.992)" fill="#fff"/>
        <path id="Path_297" data-name="Path 297" d="M185.749,106.55V88.737h-6.956V106.55H164.306V64.027H64.434V106.55H49.948V88.737H42.992V106.55H.107V262.375H7.063V113.448H64.434V262.375H71.39V70.924h85.961V262.375h6.956V113.448h57.372V262.375h6.956V106.55Z" transform="translate(-0.107 -52.782)" fill="#fff"/>
        <rect id="Rectangle_387" data-name="Rectangle 387" width="7.275" height="7.476" transform="translate(42.821 23.992)" fill="#fff"/>
      </g>
      <text id="KØBENHAVN_K" data-name="KØBENHAVN K" transform="translate(0 276.179)" fill="#fff" font-size="38" font-family="WorkSans-SemiBold, Work Sans" font-weight="600"><tspan x="0" y="0">KØBENHAVN K</tspan></text>
    </g>
  </g>
</svg>
