<svg id="Group_14" data-name="Group 14" xmlns="http://www.w3.org/2000/svg" width="254.713" height="222.858" viewBox="0 0 254.713 222.858">
  <path id="Path_68" data-name="Path 68" d="M303.636,247.753a104.989,104.989,0,0,0-24.162,20.46q-2.6,2.971-4.966,6.155c-1.264,1.706-2.62,4.2-5.119,3.87-2.376-.3-3.382-2.94-2.7-5.012a7.679,7.679,0,0,1,.655-1.447,1.781,1.781,0,0,1,.167-1.447,64.37,64.37,0,0,1,22.334-23.354,51.635,51.635,0,0,1,13.025-6.109c1.783-.5,4.357-.274,4.951,1.859C308.587,245.407,305.434,246.656,303.636,247.753Z" transform="translate(-166.481 -93.442)" fill="#d67b21"/>
  <path id="Path_69" data-name="Path 69" d="M265.317,251.867c-.579-2.224-2.651-4.174-4.448-5.469a14.011,14.011,0,0,0-14.4-.99,5.3,5.3,0,0,0-2.666,2.986,3.822,3.822,0,0,0,1.005,3.9,2.172,2.172,0,0,0,.7.411,3.488,3.488,0,0,0,2.636.3,12.725,12.725,0,0,1,8.882.335c1.173.5,2.117,1.31,3.23,1.9a3.778,3.778,0,0,0,3.535.168A3.1,3.1,0,0,0,265.317,251.867Zm-17.306-.762v-.152c.015-.031.03-.046.046-.076Z" transform="translate(-178.436 -91.751)" fill="#d67b21"/>
  <path id="Path_70" data-name="Path 70" d="M246.556,248.47l-.046.228v-.152C246.525,248.516,246.541,248.5,246.556,248.47Z" transform="translate(-176.935 -89.344)" fill="#d67b21"/>
  <path id="Path_71" data-name="Path 71" d="M320.2,251.255a6.572,6.572,0,0,0-5.378-2.59,7.859,7.859,0,0,0,2.544-6.368,2,2,0,0,0-1.66-1.844,1.94,1.94,0,0,0-1.326.107,70.312,70.312,0,0,0-31.535,27.97c-1.417,2.362-4.175,6.033-2.712,8.912a3.016,3.016,0,0,0,3.306,1.615c1.6-.335,2.468-1.859,2.879-3.306a41.4,41.4,0,0,1,1.219-4.479,21.827,21.827,0,0,1,2.925-5.119A34.142,34.142,0,0,1,298.7,258.6c.716-.487,1.432-.945,2.163-1.386a5.789,5.789,0,0,0-.244,1.158,4.505,4.505,0,0,0,1.538,4.037,7.256,7.256,0,0,0,4.372,1.234,16.546,16.546,0,0,0,4.326-.411,16.85,16.85,0,0,0,7.724-4.022C320.809,257.182,322.195,253.952,320.2,251.255Zm-6.81,7.084a13.473,13.473,0,0,1-7.251,1.539,3.478,3.478,0,0,1-1.493-.274.616.616,0,0,1-.32-.518c-.122-1.1.884-2.209,1.539-3.062a.8.8,0,0,0,.091-.152c.061.076.122.167.183.244a1,1,0,0,0,.137.122,3.957,3.957,0,0,0,.487.4,1.293,1.293,0,0,0,.153.091c.183.091.381.168.579.244a.542.542,0,0,0,.167.061.535.535,0,0,0,.153.03,4.76,4.76,0,0,0,.655.076,1.9,1.9,0,0,0,.411-.046,1.938,1.938,0,0,0,.412-.061,4.65,4.65,0,0,0,.579-.244,1.419,1.419,0,0,0,.152-.076,5.689,5.689,0,0,0,.472-.381.885.885,0,0,0,.122-.122,2.861,2.861,0,0,0,.457-.64,3.006,3.006,0,0,0,.274-.731c.046-.2.061-.411.092-.624v-.183c-.015-.2-.046-.411-.076-.609-.015-.061-.03-.122-.046-.167l-.137-.366c1.859-.472,5.241-1.28,6.155.792C318.158,255.521,314.776,257.593,313.389,258.339Z" transform="translate(-159.553 -93.577)" fill="#d67b21"/>
  <path id="Path_72" data-name="Path 72" d="M335.887,259.852c-2.117,1.036-4.189-.213-5.545-1.828a10.005,10.005,0,0,0-5.042-3.352,25.348,25.348,0,0,0-7.511-.64c-2.529.061-5.058.137-7.6.2a1.721,1.721,0,0,1-1.691-2.392,1.606,1.606,0,0,1,.259-1.371,13.525,13.525,0,0,1,11.5-5.7c4.387.046,8.394,2.041,11.746,4.768C334.318,251.412,340.945,257.354,335.887,259.852Z" transform="translate(-144.543 -91.281)" fill="#d67b21"/>
  <path id="Path_73" data-name="Path 73" d="M393.311,260.688c-.99,6.231-7.48,11.167-21.191,16.21-25.213,9.278-49.573,9.628-66.087,8.729a243.926,243.926,0,0,1-31.17-3.748l-28.671-3.733s-8.729-2.5-14.96-7.48c-6.246-5-2.5-12.477-2.5-12.477s0-1.249,3.732-4.982c3.748-3.748,7.5-1.249,8.729-1.112,1.356.137,1.859,2.666,1.249,3.611-.792,1.234-3.275-.213-4.982,1.234-1.371,1.173-1.295,3.382-1.249,5a13.479,13.479,0,0,0,1.249,4.982c1.874,3.778,58.942,12.035,77.3,12.477a211.84,211.84,0,0,0,44.9-3.748,131.676,131.676,0,0,0,13.619-5.957,4.827,4.827,0,0,1-2.437-.457c-1.584-.731-2.483-2.133-3.7-3.291a6.874,6.874,0,0,0-4.1-1.584,42.254,42.254,0,0,0-10.192.03,46.011,46.011,0,0,0-18.921,6.688,88.413,88.413,0,0,0-7.754,6.078,3.392,3.392,0,0,1-3.839.488h-.015a3.958,3.958,0,0,1-4.738-3.154c-.746-4.159,3.671-6.353,6.642-8a70.54,70.54,0,0,1,23.629-8.47A50.23,50.23,0,0,1,370.7,259.56c2.895.929,6.292,2.483,6.307,6.033a4.16,4.16,0,0,1-.747,2.468c4.906-2.879,8.608-6.063,7.084-8.623-3.748-6.231-2.362-8.287-2.362-8.287,3.87-9.522,11.091,2.057,11.091,2.057A12.93,12.93,0,0,1,393.311,260.688Z" transform="translate(-186.824 -89.908)" fill="#d67b21"/>
  <path id="Path_74" data-name="Path 74" d="M289.769,266.181" transform="translate(-154.292 -80.074)" fill="#d67b21"/>
  <path id="Path_75" data-name="Path 75" d="M350.885,271.45a1.87,1.87,0,0,1-2.651-2.636c2.438-3.138,4.525-7.069,3.961-11.167a7.173,7.173,0,0,0-4.586-5.941h-.015c-.716-.076-1.417-.107-2.072-.137a1.482,1.482,0,0,1-.518-.091h-.031c-1.005.137-1.874-.96-1.874-1.874a1.921,1.921,0,0,1,1.874-1.859,6.678,6.678,0,0,1,.777-.061h.031a9.527,9.527,0,0,1,7.754,1.478,10.888,10.888,0,0,1,1.28.609,9.089,9.089,0,0,1,4.631,6.977C360.208,263.1,355.333,267.763,350.885,271.45Z" transform="translate(-126.376 -89.899)" fill="#d67b21"/>
  <path id="Path_76" data-name="Path 76" d="M279.9,284.332c-.518.03-1.036.046-1.554.061a1.49,1.49,0,0,1,.64-.091C279.294,284.317,279.6,284.317,279.9,284.332Z" transform="translate(-160.269 -70.591)" fill="#d67b21"/>
  <path id="Path_77" data-name="Path 77" d="M288.864,243.383c.046,2.422-3.7,2.407-3.733,0q-.388-24.7-.762-49.421c-.046-2.422,3.7-2.407,3.732,0Q288.491,218.665,288.864,243.383Z" transform="translate(-157.118 -118.824)" fill="#d67b21"/>
  <path id="Path_78" data-name="Path 78" d="M419.105,150.16a5.917,5.917,0,0,0-3.611-4.86,2.1,2.1,0,0,0-.168-.213,1.5,1.5,0,0,0-1.767-.5,13.434,13.434,0,0,0-2.391-.442c-17.474-1.645-30.789,13.467-43.693,22.745A185.054,185.054,0,0,1,343.1,181.619a10.362,10.362,0,0,0-8.958-6.444,8.313,8.313,0,0,0-8.623,6.459,9.746,9.746,0,0,0-1.2-.579,9.995,9.995,0,0,0-10.816,2.087,11.424,11.424,0,0,0-4.616-1.28,8.985,8.985,0,0,0-9.278,7.023,9.272,9.272,0,0,0-1.721-.031,10.678,10.678,0,0,0-6.612,2.773,1.307,1.307,0,0,0-.2.213l-18.845-.183c-2.407-.03-2.407,3.717,0,3.733l17.642.183a4.67,4.67,0,0,0,.381,3.61,4.252,4.252,0,0,0,.823,1.036q-6.81.069-13.589.168c-2.407.015-2.407,3.763,0,3.732q10.718-.137,21.45-.259a1.9,1.9,0,0,0,1.264-3.245V200.6a1.92,1.92,0,0,0-.853-1.127c-.609-.335-1.219-.685-1.828-1.036a1.47,1.47,0,0,0-.7-.228,1.948,1.948,0,0,0-.518-.015h-.015c-.2-.107-.381-.213-.579-.32a2.2,2.2,0,0,0-.274-.122,1.781,1.781,0,0,0-1.31-.122c-1.158.3-.548-1.508-.122-1.919a5.029,5.029,0,0,1,4.083-.884,6.959,6.959,0,0,1,5.911,5.576,6.191,6.191,0,0,1-.183,3.016l-.015.015c-.015,0-.031.015-.061.061-.152.2-.335.381-.5.564a1.831,1.831,0,0,0-.518,1.539c-.655.975-1.462,1.889-2.239,2.849-.137.168-.274.335-.4.5-5.164-.183-10.344-.335-15.509-.518-2.407-.076-2.407,3.656,0,3.748,4.494.137,8.973.289,13.467.457a7.1,7.1,0,0,0,.228,5.286,1.876,1.876,0,0,0,2.56.67,1.925,1.925,0,0,0,.67-2.559c-1.3-2.895,2.879-6.216,4.326-8.227a10.328,10.328,0,0,0,1.463-2.925,10.914,10.914,0,0,0,.823-9.8,9.8,9.8,0,0,0-2.666-3.7c3.717-1.569,7.861,1.2,9.217,4.875,1.919,5.18-.107,10.618-2.438,15.28-2.56,2.392-5.423,4.707-6.9,7.891a1.7,1.7,0,0,0-.884,1.524q-.617,23.926-1.219,47.867c-.061,2.407,3.687,2.392,3.748,0q.572-23.034,1.173-46.038c0-.015.015-.046.015-.061.732-3.519,3.672-5.82,6.262-8.15.289-.259.579-.518.853-.792.168-.137.335-.3.488-.457a20.12,20.12,0,0,0,5.789-11.243c.838-5.576-.853-12.6-5.028-16.727,2.681-2.346,6.947-1.264,9.323,1.158,3.23,3.321,3.626,8.455,2.956,12.812a27,27,0,0,1-14.107,19.637c-2.133,1.112-.244,4.342,1.889,3.23a29.706,29.706,0,0,0,7.206-5.317.082.082,0,0,0,.061-.046.451.451,0,0,0-.03.152,1.334,1.334,0,0,0-.03.259q-1.143,39.6.35,79.234c.092,2.407,3.824,2.422,3.733,0q-1.486-39.6-.335-79.234a1.736,1.736,0,0,0-.107-.7.811.811,0,0,0,.015-.2c0-.213-.015-.427-.015-.64.046-.335.076-.686.107-1.036h.015a1.312,1.312,0,0,0,.411-.076,28.019,28.019,0,0,0,6.733-4.007,398.568,398.568,0,0,0,1.2,68.616q-.045,7.587-.259,15.158c-.061,2.407,3.671,2.407,3.732,0,.091-3.778.168-7.572.213-11.35a1.486,1.486,0,0,0,.335-1.219q-.16-1.348-.274-2.7c.183-17.9-.061-35.816-.427-53.732-.137-6.292-.259-12.6-.411-18.891a26.991,26.991,0,0,0,4.494-7.922.743.743,0,0,0,.183.015c1.8,0,3.6,0,5.393-.015a1.948,1.948,0,0,0,1.6-.884,1.315,1.315,0,0,0,.3-.274q2.4-2.9,4.768-5.774a93.885,93.885,0,0,1,32.708-20.353c.061-.03.122-.046.183-.076a2.184,2.184,0,0,0,.9-.2,183.18,183.18,0,0,0,23.217-12.812C415.388,156.315,419.486,154.136,419.105,150.16Zm-80.986,44.012a19.284,19.284,0,0,1-7.739,13.056,31.015,31.015,0,0,0,1.325-3.732c1.737-6.094,1.584-14.016-2.575-18.952-.092-.122-.2-.228-.3-.35a1.628,1.628,0,0,0,.381-.015,1.916,1.916,0,0,0,.716-.3,6.706,6.706,0,0,1,.594-.4c2.255-1.158,4.891.076,6.216,2.194C338.272,188.14,338.47,191.354,338.119,194.172Zm73.628-43.753c-.533,1.28-2.179,2.026-3.306,2.636-3.6,1.874-7.221,3.687-10.832,5.53q-10.969,5.621-21.953,11.228a1.679,1.679,0,0,0-.823.838,86.225,86.225,0,0,0-15.387,9.522c-4.677,3.717-9.019,8.257-14.671,10.5a22.661,22.661,0,0,0-.5-5.469c.015,0,.031-.015.045-.015a186.44,186.44,0,0,0,20.14-11.67c6.414-4.3,12.386-9.141,18.433-13.924,5.957-4.723,12.4-9.2,19.881-11.03a27.6,27.6,0,0,1,6.612-.9,1.542,1.542,0,0,0,1.584.838C411.915,148.439,412.037,149.734,411.747,150.419Z" transform="translate(-164.417 -144.019)" fill="#d67b21"/>
  <path id="Path_79" data-name="Path 79" d="M285.181,179.949" transform="translate(-156.693 -125.211)" fill="#d67b21"/>
  <path id="Path_80" data-name="Path 80" d="M297.674,173.736c-.031-.031,0-.015.046.015C297.7,173.751,297.689,173.736,297.674,173.736Z" transform="translate(-150.16 -128.472)" fill="#d67b21"/>
  <path id="Path_81" data-name="Path 81" d="M300.153,189.81a1.579,1.579,0,0,1-.853.792C299.589,190.343,299.879,190.084,300.153,189.81Z" transform="translate(-149.303 -120.049)" fill="#d67b21"/>
  <path id="Path_82" data-name="Path 82" d="M297.72,173.751c-.015,0-.031-.015-.046-.015C297.644,173.705,297.674,173.72,297.72,173.751Z" transform="translate(-150.16 -128.472)" fill="#d67b21"/>
  <path id="Path_83" data-name="Path 83" d="M306.67,190.705" transform="translate(-145.445 -119.581)" fill="#d67b21"/>
  <path id="Path_84" data-name="Path 84" d="M305.511,191.81a.448.448,0,0,0-.03.152.285.285,0,0,0-.031-.107A.082.082,0,0,0,305.511,191.81Z" transform="translate(-146.084 -119.003)" fill="#d67b21"/>
  <path id="Path_85" data-name="Path 85" d="M309.141,170.38a1.282,1.282,0,0,1-.076.366c-.091-.122-.2-.228-.3-.35A1.622,1.622,0,0,0,309.141,170.38Z" transform="translate(-144.351 -130.22)" fill="#d67b21"/>
  <path id="Path_86" data-name="Path 86" d="M364.051,145.46" transform="translate(-115.409 -143.264)" fill="#d67b21"/>
  <path id="Path_87" data-name="Path 87" d="M365.025,145.782" transform="translate(-114.899 -143.096)" fill="#d67b21"/>
  <path id="Path_88" data-name="Path 88" d="M363.621,146.326" transform="translate(-115.634 -142.811)" fill="#d67b21"/>
  <path id="Path_89" data-name="Path 89" d="M450.989,260.633c-2.7-7.13-9.994-11.136-16.438-14.351a118.863,118.863,0,0,0-48.872-12.416c-1.737-.061-3.976-.442-5.545.533a3.953,3.953,0,0,0-1.539,4.464c1.082,3.778,6.688,4.784,9.933,5.515,8.775,1.935,17.809,1.326,26.675,2.407,7.419.914,15.448,3.428,20.231,9.552a16.047,16.047,0,0,1,3.412,10.161,12.614,12.614,0,0,1-4.89,9.43c-3.473,2.91-7.846,4.921-11.852,6.993a131.021,131.021,0,0,1-12.98,5.926c-9.095,3.519-29.585,5.3-29.89,5.759q-26.028.457-52.041,2.285h-.061q-35.535-2.491-71.084-4.966-12.066-.822-24.116-1.676a170.385,170.385,0,0,1-16.514-5.926.41.41,0,0,0-.122-.107c-3.824-2.727-3.9-8.592-1.95-12.477,2.529-5.012,7.754-8.029,12.584-10.466a151.651,151.651,0,0,1,55.3-15.569,5.663,5.663,0,0,0,1.051,2.894,5.914,5.914,0,0,0,5.484,2.285c1.2-.091,3.6-.838,4.494.335a23.711,23.711,0,0,0,1.447,2.468,5.564,5.564,0,0,0,2.757,1.6.331.331,0,0,0,.122.015,68.579,68.579,0,0,0-8.882,7.77c-.214.213-.411.426-.625.655a3.578,3.578,0,0,0-.35-.488,5.891,5.891,0,0,0-3.961-1.737,25.929,25.929,0,0,0-4.616-.092,14.523,14.523,0,0,1-1.72.1,3.413,3.413,0,0,0-1.167.052c-.32.095-.57.347-.9.417a3.489,3.489,0,0,1-.852-.067,1.634,1.634,0,0,0-.832.248c-2.285,1.28-4.586,3.763-4.8,6.49-.3,3.839,4.113,4.037,6.84,4.387a21.973,21.973,0,0,0,6.779.092,15.577,15.577,0,0,0-.594,3.153,1.634,1.634,0,0,0,2.117,1.737,1.935,1.935,0,0,0,2.544-.655,85.235,85.235,0,0,1,8.943-12.614c1.63-1.371,3.321-2.681,5.043-3.93a96.848,96.848,0,0,1,18.083-10.375c4.129-1.31,8.364-2.331,12.523-3.321,2.1-.5,1.584-3.626-.488-3.687a48.877,48.877,0,0,0-24.36,6.277c-.015-.015-.015-.031-.03-.046a3.358,3.358,0,0,0-2.377-1.569c-.914-.167-1.737,0-2.514-.594-1.173-.884-1.95-2.224-3.077-3.184a8.727,8.727,0,0,0-3.976-1.8c2.529-.35,5.043-.579,7.587-.747a.487.487,0,0,0-.03.213,5.9,5.9,0,0,0,6.307,5.88,5.064,5.064,0,0,0,4.19-2.575,3.582,3.582,0,0,0,.274-2.712,3.467,3.467,0,0,0-.548-1.051c2.057,0,4.113.045,6.155.091,5.7.152,11.38.4,17.062.457,2.834.03,5.667.015,8.5-.076,2.453-.091,5.256.046,7.6-.746,2.118-.716,3.931-2.59,3.336-4.966a3.969,3.969,0,0,0-2.483-2.788,1.777,1.777,0,0,0-1.371-.625q-11.458-.288-22.92.032-11.513.311-23,1.222c-1.274.1-2.463.178-3.74.159q-2.022-.032-4.044.087c-5.422.32-10.794,1.577-16.144,2.572-7.031,1.31-14.043,2.729-21,4.389-6.942,1.658-13.831,3.559-20.6,5.829a170.358,170.358,0,0,0-18.228,7.253c-8.745,4.1-18.937,10.786-19.393,21.5-.229,5.164,2.285,10.085,5.85,13.7,4.022,4.083,9.369,6.414,14.884,7.663,6.246,1.4,12.736,1.691,19.1,2.148,1.615.122,3.23.229,4.845.335a1.842,1.842,0,0,0,.3,2.056,53.994,53.994,0,0,0,42.367,18.251,1.844,1.844,0,0,0,.731.167,238.029,238.029,0,0,0,31.794-.807h.091q19.378.16,38.772-.122c6.414-.091,19.82-.472,20.079-.61a30.394,30.394,0,0,0,13.147-2.422,37.155,37.155,0,0,0,9.445-3.5c6.246-3.412,11.578-9.141,13.1-16.24,1.965-.579,3.9-1.234,5.82-1.935,9.994-3.7,21.45-9.293,26.569-19.211C447.866,275.182,452.756,265.31,450.989,260.633Zm-64.4-24.619c-.03,0-.076-.015-.107-.015h-.015a.77.77,0,0,0-.183-.03,2.2,2.2,0,0,1,1.158.2C387.157,236.121,386.883,236.075,386.593,236.014ZM281.178,267.455a.427.427,0,0,0-.069.094,3.353,3.353,0,0,1-2.057.884,6.421,6.421,0,0,1-2.224.03,3.39,3.39,0,0,1-1.143-.457,1.081,1.081,0,0,0-.152-.122c-.107-.106-.259-.289-.32-.335a1.515,1.515,0,0,1-.335-.746.911.911,0,0,1,.183-.838,1.839,1.839,0,0,1,.747-.442,5.834,5.834,0,0,1,.678-.194,1.7,1.7,0,0,1,.705.037,12.928,12.928,0,0,1,1.287.332,7.839,7.839,0,0,1,2.311,1.211c0,.052.145.166.177.2.066.068.175.247.288.2A.133.133,0,0,1,281.178,267.455Zm94,43.421q-25.022,1.325-50.076.594a1.625,1.625,0,0,0-1.036-.274c-1.158.046-2.331.091-3.489.122h-.107c-.518.03-1.036.046-1.554.061h-.015l-25.3.914h-.015c-1.66-.244-3.336-.5-5-.747-5.545-.823-11.471-1.295-16.529-3.869a1.767,1.767,0,0,0-1.158-.183,43.978,43.978,0,0,1-6.155-4.342c36.2,2.651,72.638,4.906,108.835,1.188q12.317-1.257,24.512-3.5C392,306.047,375.472,310.557,375.182,310.876Z" transform="translate(-200.841 -97.577)" fill="#d67b21"/>
  <path id="Path_90" data-name="Path 90" d="M263.115,233.87h-.975c.046-.015.107-.015.152-.031A2.09,2.09,0,0,1,263.115,233.87Z" transform="translate(-168.754 -97.017)" fill="#d67b21"/>
  <path id="Path_91" data-name="Path 91" d="M322.57,234.864a.77.77,0,0,1,.183.03h.015c.03,0,.076.015.107.015.289.061.564.107.853.152A2.2,2.2,0,0,0,322.57,234.864Z" transform="translate(-137.122 -96.473)" fill="#d67b21"/>
  <path id="Path_92" data-name="Path 92" d="M323.728,235.063c-.289-.046-.564-.092-.853-.152-.03,0-.076-.015-.107-.015h-.015a.77.77,0,0,0-.183-.03A2.2,2.2,0,0,1,323.728,235.063Z" transform="translate(-137.122 -96.473)" fill="#d67b21"/>
  <path id="Path_93" data-name="Path 93" d="M355.828,244.841" transform="translate(-119.714 -91.244)" fill="#d67b21"/>
  <path id="Path_94" data-name="Path 94" d="M217.931,271.153s-4.311-1.036-4.311-7.267,4.311-7.526,4.311-7.526,3.169-2.453,3.169,1.3c0,3.732-1.249,3.732-1.249,3.732s-4.982,1.249-2.5,5c2.5,3.732,3.748,1.249,3.748,1.249s1.249-3.747,2.483,0C224.833,271.367,217.931,271.153,217.931,271.153Z" transform="translate(-194.151 -85.626)" fill="#d67b21"/>
  <path id="Path_95" data-name="Path 95" d="M249.272,252.928" transform="translate(-175.489 -87.011)" fill="#d67b21"/>
  <path id="Path_96" data-name="Path 96" d="M254.958,261.375" transform="translate(-172.513 -82.589)" fill="#d67b21"/>
</svg>
