<?xml version="1.0" encoding="UTF-8"?>
<svg id="Layer_1" data-name="Layer 1" xmlns="http://www.w3.org/2000/svg" viewBox="0 0 260 214.44">
  <defs>
    <style>
      .cls-1 {
        fill: #d67b21;
      }
    </style>
  </defs>
  <g id="Group_123" data-name="Group 123">
    <g id="Group_14" data-name="Group 14">
      <path id="Path_68" data-name="Path 68" class="cls-1" d="M127.46,137.86c-3.39,2.08-6.44,4.67-9.06,7.67-.65,.74-1.27,1.51-1.86,2.31-.47,.64-.98,1.58-1.92,1.45-.75-.16-1.24-.9-1.08-1.65,.02-.08,.04-.16,.07-.23,.06-.19,.14-.37,.24-.54-.06-.18-.03-.38,.06-.54,2-3.58,4.88-6.6,8.37-8.75,1.51-.99,3.16-1.76,4.88-2.29,.67-.19,1.63-.1,1.86,.7,.29,1-.89,1.47-1.57,1.88Z"/>
      <path id="Path_69" data-name="Path 69" class="cls-1" d="M108.62,140.03c-.32-.85-.9-1.57-1.67-2.05-1.59-1.11-3.67-1.26-5.4-.37-.47,.23-.83,.63-1,1.12-.16,.52-.02,1.09,.38,1.46,.08,.07,.17,.12,.26,.15,.3,.17,.66,.21,.99,.11,1.09-.36,2.27-.31,3.33,.13,.44,.19,.79,.49,1.21,.71,.4,.24,.9,.26,1.32,.06,.48-.26,.72-.81,.57-1.33Zm-6.49-.29v-.06s.01-.02,.02-.03l-.02,.09Z"/>
      <path id="Path_70" data-name="Path 70" class="cls-1" d="M102.15,139.66l-.02,.09v-.06s.01-.02,.02-.03Z"/>
      <path id="Path_71" data-name="Path 71" class="cls-1" d="M136.26,139.12c-.48-.63-1.23-.99-2.02-.97,.67-.61,1.02-1.49,.95-2.39-.02-.35-.28-.63-.62-.69-.17-.05-.34-.03-.5,.04-4.92,2.2-9.04,5.86-11.82,10.48-.53,.88-1.57,2.26-1.02,3.34,.23,.46,.74,.71,1.24,.6,.56-.18,.98-.66,1.08-1.24,.12-.57,.27-1.13,.46-1.68,.28-.69,.65-1.33,1.1-1.92,.87-1.11,1.91-2.06,3.09-2.83,.27-.18,.54-.35,.81-.52-.05,.14-.08,.29-.09,.43-.08,.57,.14,1.14,.58,1.51,.48,.33,1.06,.49,1.64,.46,.55,.02,1.09-.03,1.62-.15,1.08-.24,2.08-.76,2.9-1.51,.95-.68,1.21-1.98,.6-2.98Zm-2.55,2.65c-.83,.44-1.78,.64-2.72,.58-.19,0-.38-.03-.56-.1-.07-.04-.12-.11-.12-.19-.05-.41,.33-.83,.58-1.15,.01-.02,.02-.04,.03-.06,.02,.03,.05,.06,.07,.09,.02,.02,.03,.03,.05,.05,.06,.05,.12,.1,.18,.15,.02,.01,.04,.02,.06,.03,.07,.03,.14,.06,.22,.09,.02,.01,.04,.02,.06,.02,.02,0,.04,.01,.06,.01,.08,.02,.16,.02,.24,.03,.05,0,.1,0,.15-.02,.05,0,.1,0,.15-.02,.07-.03,.15-.06,.22-.09,.02,0,.04-.02,.06-.03,.06-.04,.12-.09,.18-.14,.02-.01,.03-.03,.05-.05,.07-.07,.13-.15,.17-.24,.05-.09,.08-.18,.1-.27,.02-.07,.02-.15,.03-.23v-.07c0-.07-.02-.15-.03-.23,0-.02-.01-.05-.02-.06l-.05-.14c.7-.18,1.96-.48,2.31,.3,.31,.69-.96,1.46-1.48,1.74h0Z"/>
      <path id="Path_72" data-name="Path 72" class="cls-1" d="M147.77,143.2c-.77,.29-1.63,0-2.08-.68-.49-.6-1.15-1.04-1.89-1.26-.92-.22-1.87-.3-2.82-.24-.95,.02-1.9,.05-2.85,.07-.36,.02-.66-.25-.69-.6,0-.1,.01-.2,.05-.3-.05-.18-.01-.37,.1-.51,.99-1.39,2.61-2.19,4.31-2.14,1.63,.08,3.18,.71,4.4,1.79,.87,.71,3.35,2.93,1.46,3.87Z"/>
      <path id="Path_73" data-name="Path 73" class="cls-1" d="M153.45,144.03c-.37,2.34-2.8,4.19-7.94,6.08-7.95,2.76-16.38,3.88-24.77,3.27-3.92-.22-7.82-.68-11.68-1.4l-10.75-1.4c-2.01-.61-3.91-1.56-5.61-2.8-2.34-1.87-.94-4.68-.94-4.68,0,0,0-.47,1.4-1.87s2.81-.47,3.27-.42c.51,.05,.7,1,.47,1.35-.3,.46-1.23-.08-1.87,.46-.42,.53-.59,1.21-.47,1.87,.03,.65,.19,1.28,.47,1.87,.7,1.42,22.09,4.51,28.97,4.68,5.64,.13,11.28-.34,16.83-1.4,1.74-.65,3.44-1.39,5.1-2.23-.31,.02-.63-.04-.91-.17-.53-.33-1-.75-1.39-1.23-.43-.36-.97-.57-1.54-.59-1.27-.15-2.55-.15-3.82,.01-2.52,.3-4.94,1.16-7.09,2.51-1.01,.7-1.98,1.47-2.91,2.28-.39,.36-.97,.43-1.44,.18h0c-.8,.17-1.59-.33-1.77-1.13,0-.02,0-.03,0-.05-.28-1.56,1.38-2.38,2.49-3,2.74-1.58,5.74-2.65,8.86-3.18,2.86-.47,5.79-.27,8.57,.58,1.08,.35,2.36,.93,2.36,2.26,0,.33-.09,.65-.28,.93,1.84-1.08,3.23-2.27,2.65-3.23-1.4-2.34-.89-3.11-.89-3.11,1.45-3.57,4.16,.77,4.16,.77,.43,.86,.59,1.84,.47,2.79Z"/>
      <path id="Path_75" data-name="Path 75" class="cls-1" d="M160.2,148.07c-.27,.27-.72,.28-.99,0s-.28-.72,0-.99c1.03-1.14,1.57-2.65,1.48-4.19-.11-1.01-.77-1.87-1.72-2.23h0c-.27-.03-.53-.04-.78-.05-.07,0-.13-.01-.19-.03h-.01c-.38,.05-.7-.36-.7-.7,.01-.38,.32-.69,.7-.7,.1-.01,.19-.02,.29-.02h.01c1-.24,2.06-.04,2.91,.55,.16,.07,.33,.14,.48,.23,.97,.54,1.62,1.51,1.74,2.62,.29,2.38-1.54,4.13-3.21,5.51Z"/>
      <path id="Path_76" data-name="Path 76" class="cls-1" d="M120.89,160.13c-.19,.01-.39,.02-.58,.02,.08-.03,.16-.04,.24-.03,.11,0,.23,0,.34,.01Z"/>
      <path id="Path_77" data-name="Path 77" class="cls-1" d="M125.43,126.7c0,.39-.32,.7-.7,.7-.38,0-.7-.31-.7-.7-.1-6.17-.19-12.35-.29-18.52,0-.39,.32-.7,.7-.7,.38,0,.7,.31,.7,.7,.1,6.17,.19,12.35,.29,18.52Z"/>
      <path id="Path_78" data-name="Path 78" class="cls-1" d="M171.51,82.32c-.08-.81-.6-1.51-1.35-1.82-.02-.03-.04-.05-.06-.08-.15-.21-.42-.28-.66-.19-.29-.08-.6-.14-.9-.17-6.55-.62-11.54,5.05-16.38,8.52-2.9,2.07-5.95,3.92-9.14,5.52-.56-1.38-1.87-2.32-3.36-2.41-1.53-.09-2.89,.93-3.23,2.42-.15-.08-.3-.16-.45-.22-1.39-.57-2.98-.27-4.05,.78-.54-.28-1.13-.44-1.73-.48-1.65-.09-3.12,1.02-3.48,2.63-.21-.02-.43-.03-.64-.01-.92,.05-1.8,.42-2.48,1.04-.03,.02-.05,.05-.07,.08l-7.06-.07c-.39,0-.7,.32-.7,.7,0,.38,.31,.7,.7,.7l6.61,.07c-.14,.45-.09,.94,.14,1.35,.08,.14,.19,.28,.31,.39-1.7,.02-3.4,.04-5.09,.06-.39,0-.7,.32-.7,.7,0,.38,.31,.7,.7,.7,2.68-.03,5.36-.07,8.04-.1,.39-.02,.7-.35,.68-.74,0-.18-.08-.35-.21-.48h0c-.05-.18-.16-.33-.32-.43-.23-.13-.46-.26-.68-.39-.08-.05-.17-.08-.26-.09-.06-.01-.13-.01-.19,0h0c-.07-.04-.14-.08-.22-.12-.03-.02-.07-.03-.1-.05-.15-.08-.33-.09-.49-.05-.43,.11-.21-.57-.05-.72,.44-.33,1-.45,1.53-.33,1.11,.15,2,.99,2.22,2.09,.07,.38,.05,.77-.07,1.13h0s-.01,.01-.02,.03c-.06,.07-.13,.14-.19,.21-.15,.15-.22,.36-.19,.58-.24,.37-.55,.71-.84,1.07-.05,.06-.1,.13-.15,.19-1.94-.07-3.88-.13-5.81-.19-.9-.03-.9,1.37,0,1.4,1.68,.05,3.36,.11,5.05,.17-.23,.65-.2,1.36,.09,1.98,.19,.33,.62,.45,.96,.25,0,0,0,0,0,0,.33-.2,.44-.62,.25-.96-.48-1.09,1.08-2.33,1.62-3.08,.24-.34,.43-.71,.55-1.1,.68-1.11,.79-2.47,.31-3.67-.22-.53-.56-1.01-1-1.39,1.46-.44,3,.38,3.45,1.84,.72,1.94-.04,3.98-.91,5.73-1.04,.81-1.92,1.82-2.59,2.96-.21,.11-.34,.33-.33,.57-.15,5.98-.31,11.96-.46,17.94,0,.39,.32,.7,.7,.7,.38,0,.7-.31,.7-.7,.14-5.76,.29-11.51,.44-17.26,0,0,0-.02,0-.02,.27-1.32,1.38-2.18,2.35-3.05,.11-.1,.22-.19,.32-.3,.06-.05,.13-.11,.18-.17,1.16-1.13,1.92-2.61,2.17-4.21,.34-2.27-.35-4.57-1.88-6.27,1.11-.76,2.61-.58,3.49,.43,1.09,1.35,1.49,3.11,1.11,4.8-.5,3.15-2.46,5.88-5.29,7.36-.8,.42-.09,1.63,.71,1.21,1-.52,1.91-1.2,2.7-1.99,0,0,.02,0,.02-.02,0,.02-.01,.04-.01,.06,0,.03-.01,.07-.01,.1-.29,9.9-.24,19.8,.13,29.7,.03,.9,1.43,.91,1.4,0-.37-9.9-.41-19.8-.13-29.7,0-.09,0-.18-.04-.26,0-.02,0-.05,0-.07,0-.08,0-.16,0-.24,.02-.13,.03-.26,.04-.39h0c.05,0,.1-.01,.15-.03,.91-.38,1.76-.88,2.52-1.5-.59,8.57-.44,17.17,.45,25.72-.01,1.9-.04,3.79-.1,5.68,0,.39,.32,.7,.7,.7,.38,0,.7-.31,.7-.7,.03-1.42,.06-2.84,.08-4.25,.11-.13,.15-.29,.13-.46-.04-.34-.07-.67-.1-1.01,.07-6.71-.02-13.43-.16-20.14-.05-2.36-.1-4.72-.15-7.08,.73-.89,1.29-1.89,1.68-2.97,.02,0,.05,0,.07,0,.67,0,1.35,0,2.02,0,.24,0,.47-.13,.6-.33,.04-.03,.08-.06,.11-.1l1.79-2.16c3.52-3.36,7.69-5.96,12.26-7.63,.02-.01,.05-.02,.07-.03,.12,0,.23-.03,.34-.07,3.01-1.39,5.92-2.99,8.7-4.8,1.07-.7,2.61-1.52,2.46-3.01Zm-30.36,16.5c-.26,1.96-1.31,3.73-2.9,4.89,.2-.46,.36-.92,.5-1.4,.65-2.28,.59-5.25-.96-7.1-.03-.05-.07-.09-.11-.13,.05,0,.1,0,.14,0,.1-.02,.19-.06,.27-.11,.07-.05,.15-.1,.22-.15,.87-.37,1.88-.01,2.33,.82,.52,.97,.7,2.09,.52,3.18h0Zm27.6-16.4c-.2,.48-.82,.76-1.24,.99-1.35,.7-2.71,1.38-4.06,2.07-2.74,1.4-5.48,2.81-8.23,4.21-.14,.06-.25,.18-.31,.31-2.04,.98-3.98,2.18-5.77,3.57-1.75,1.39-3.38,3.1-5.5,3.93,.02-.69-.04-1.38-.19-2.05,0,0,.01,0,.02,0,2.6-1.3,5.13-2.76,7.55-4.37,2.4-1.61,4.64-3.43,6.91-5.22,2.16-1.9,4.7-3.31,7.45-4.13,.81-.21,1.64-.33,2.48-.34,.11,.22,.35,.35,.59,.31,.35-.03,.39,.46,.29,.72h0Z"/>
      <path id="Path_80" data-name="Path 80" class="cls-1" d="M131.34,96.98s0,0,.02,0c0,0-.01,0-.02,0Z"/>
      <path id="Path_81" data-name="Path 81" class="cls-1" d="M132.59,106.16c-.06,.14-.18,.24-.32,.3,.11-.1,.22-.2,.32-.3Z"/>
      <path id="Path_82" data-name="Path 82" class="cls-1" d="M131.36,96.99s-.01,0-.02,0,0,0,.02,0Z"/>
      <path id="Path_84" data-name="Path 84" class="cls-1" d="M135.81,107.31s-.01,.04-.01,.06c0-.01,0-.03-.01-.04,0,0,.02,0,.02-.02Z"/>
      <path id="Path_85" data-name="Path 85" class="cls-1" d="M137.82,95.07s-.01,.09-.03,.14c-.03-.05-.07-.09-.11-.13,.05,0,.1,0,.14,0Z"/>
      <path id="Path_89" data-name="Path 89" class="cls-1" d="M169.81,141.14c-1.01-2.67-3.75-4.17-6.16-5.38-5.7-2.84-11.95-4.43-18.32-4.65-.7-.13-1.42-.06-2.08,.2-.54,.37-.78,1.05-.58,1.67,.4,1.42,2.51,1.79,3.72,2.07,3.29,.73,6.67,.5,10,.9,2.78,.34,5.79,1.29,7.58,3.58,.85,1.09,1.3,2.43,1.28,3.81-.06,1.39-.73,2.68-1.83,3.54-1.38,1.03-2.87,1.91-4.44,2.62-1.58,.83-3.2,1.57-4.86,2.22-3.41,1.32-11.09,1.99-11.2,2.16-6.5,.11-13.01,.4-19.51,.86h-.02c-8.88-.62-17.76-1.24-26.64-1.86-3.02-.21-6.03-.41-9.04-.63-2.1-.63-4.17-1.37-6.19-2.22-.01-.02-.03-.03-.05-.04-1.43-1.02-1.46-3.22-.73-4.68,.95-1.88,2.91-3.01,4.72-3.92,6.47-3.25,13.51-5.23,20.73-5.84,.03,.39,.16,.77,.39,1.09,.48,.63,1.27,.96,2.06,.86,.45-.03,1.35-.31,1.68,.13,.16,.32,.34,.63,.54,.93,.28,.3,.64,.51,1.03,.6,.01,0,.03,0,.05,0-1.19,.87-2.31,1.85-3.33,2.91-.08,.08-.15,.16-.23,.25-.04-.06-.08-.13-.13-.18-.39-.4-.93-.63-1.49-.65-.57-.06-1.15-.07-1.73-.03-.21,.02-.43,.04-.65,.04-.15-.02-.29-.01-.44,.02-.12,.04-.21,.13-.34,.16-.11,0-.21,0-.32-.02-.11,0-.22,.03-.31,.09-.95,.48-1.61,1.38-1.8,2.43-.11,1.44,1.54,1.51,2.56,1.65,.84,.14,1.7,.15,2.54,.03-.11,.39-.19,.78-.22,1.18-.04,.34,.21,.64,.54,.68,.08,0,.17,0,.25-.02,.33,.18,.75,.07,.95-.25,.97-1.67,2.09-3.26,3.35-4.73,.61-.51,1.24-1.01,1.89-1.47,2.11-1.54,4.39-2.84,6.78-3.89,1.55-.49,3.13-.87,4.69-1.24,.37-.12,.58-.51,.47-.88-.09-.29-.35-.49-.65-.5-3.2-.03-6.35,.78-9.13,2.35,0,0,0-.01-.01-.02-.2-.32-.52-.53-.89-.59-.34-.06-.65,0-.94-.22-.44-.33-.73-.83-1.15-1.19-.43-.35-.94-.58-1.49-.67,.95-.13,1.89-.22,2.84-.28,0,.03-.01,.05-.01,.08,0,1.22,1,2.21,2.22,2.21,.05,0,.1,0,.15,0,.65-.03,1.25-.39,1.57-.96,.17-.31,.2-.68,.1-1.02-.05-.14-.12-.28-.21-.39,.77,0,1.54,.02,2.31,.03,2.14,.06,4.27,.15,6.4,.17,1.06,.01,2.12,0,3.19-.03,.96,.04,1.92-.06,2.85-.28,.85-.19,1.39-1.01,1.25-1.86-.12-.48-.47-.87-.93-1.04-.13-.15-.32-.24-.51-.23-2.86-.07-5.73-.07-8.59,.01-2.88,.08-5.75,.23-8.62,.46-.48,.04-.92,.07-1.4,.06-.51,0-1.01,0-1.52,.03-2.04,.2-4.06,.52-6.05,.96-2.63,.49-5.26,1.02-7.87,1.65s-5.18,1.33-7.72,2.18c-2.33,.77-4.61,1.68-6.83,2.72-3.28,1.54-7.1,4.04-7.27,8.06,0,1.94,.79,3.8,2.19,5.13,1.55,1.47,3.48,2.47,5.58,2.87,2.36,.45,4.76,.71,7.16,.8,.6,.05,1.21,.09,1.82,.13-.12,.26-.08,.56,.11,.77,4,4.54,9.83,7.05,15.88,6.84,.09,.04,.18,.06,.27,.06,3.97,.17,7.96,.07,11.92-.3h.03c4.84,.04,9.69,.02,14.53-.05,2.4-.03,7.43-.18,7.53-.23,1.69,.07,3.37-.24,4.93-.91,1.23-.27,2.43-.72,3.54-1.31,2.44-1.23,4.22-3.45,4.91-6.09,.74-.22,1.46-.46,2.18-.73,3.75-1.39,8.04-3.48,9.96-7.2,.04-.07,1.87-3.77,1.2-5.52Zm-24.14-9.23s-.03,0-.04,0h0s-.05-.01-.07-.01c.15-.02,.3,.01,.43,.07-.1-.02-.21-.04-.32-.06h0Zm-39.51,11.79s-.02,.02-.03,.04c-.21,.2-.48,.31-.77,.33-.28,.05-.56,.06-.83,.01-.15-.03-.3-.09-.43-.17-.02-.02-.04-.03-.06-.05-.04-.04-.1-.11-.12-.13-.07-.08-.11-.18-.13-.28-.03-.11,0-.23,.07-.31,.08-.08,.17-.13,.28-.17,.08-.03,.17-.05,.25-.07,.09-.01,.18,0,.26,.01,.16,.03,.32,.07,.48,.12,.31,.1,.6,.26,.87,.45,0,.02,.05,.06,.07,.07s.07,.09,.11,.08c0,.02,0,.04-.02,.05h0Zm35.24,16.28c-6.25,.33-12.51,.41-18.77,.22-.11-.08-.25-.11-.39-.1-.43,.02-.87,.03-1.31,.05h-.04c-.19,.01-.39,.02-.58,.02h0l-9.49,.34h0c-.62-.09-1.25-.19-1.87-.28-2.13-.15-4.22-.64-6.2-1.45-.13-.07-.29-.1-.43-.07-.81-.48-1.59-1.02-2.31-1.63,13.57,.99,27.23,1.84,40.79,.45,3.08-.31,6.14-.75,9.19-1.31-2.28,1.95-8.47,3.64-8.58,3.76h0Z"/>
      <path id="Path_90" data-name="Path 90" class="cls-1" d="M111.42,131.31h-.36s.04,0,.06-.01c.1-.02,.21-.01,.31,.01Z"/>
      <path id="Path_91" data-name="Path 91" class="cls-1" d="M145.56,131.89s.05,0,.07,.01h0s.03,0,.04,0c.11,.02,.21,.04,.32,.06-.14-.06-.29-.09-.44-.07Z"/>
      <path id="Path_92" data-name="Path 92" class="cls-1" d="M145.99,131.96c-.11-.02-.21-.03-.32-.06-.01,0-.03,0-.04,0h0s-.05-.01-.07-.01c.15-.02,.3,.01,.44,.07Z"/>
      <path id="Path_94" data-name="Path 94" class="cls-1" d="M84.96,149.56s-1.62-.39-1.62-2.72c-.15-1.2,.51-2.35,1.62-2.82,0,0,1.19-.92,1.19,.49s-.47,1.4-.47,1.4c0,0-1.87,.47-.94,1.87s1.4,.47,1.4,.47c0,0,.47-1.4,.93,0s-2.11,1.32-2.11,1.32Z"/>
    </g>
    <g id="Group_16" data-name="Group 16">
      <g id="Group_15" data-name="Group 15">
        <path id="Path_97" data-name="Path 97" class="cls-1" d="M36.66,154.52h12.95v2.28h-12.95v3.47h-2.14v-9.21h2.14v3.46Z"/>
        <path id="Path_98" data-name="Path 98" class="cls-1" d="M40.43,138.94v-6.51h-5.9v-2.28h15.09v2.28h-7.05v6.51h7.05v2.28h-15.1v-2.28h5.9Z"/>
        <path id="Path_99" data-name="Path 99" class="cls-1" d="M36.66,110.62v6.05h3.63v-5.88h2.14v5.88h5.04v-6.05h2.14v8.33h-15.09v-8.33h2.14Z"/>
        <path id="Path_100" data-name="Path 100" class="cls-1" d="M57.37,88.88l-12.22-8.86,1.86-2.56c.68-1.01,1.52-1.9,2.48-2.65,.81-.6,1.74-1.01,2.72-1.2,4.25-.72,8.27,2.14,8.99,6.39,.02,.09,.03,.19,.04,.29,.11,.99,.01,2-.29,2.95-.42,1.12-1.01,2.18-1.74,3.12l-1.84,2.53Zm-.4-3.1l.6-.83c.52-.68,.94-1.45,1.24-2.26,.68-2.18-.15-4.56-2.05-5.84-1.2-.94-2.74-1.31-4.24-1.02-1.54,.42-2.86,1.4-3.71,2.76l-.6,.83,8.75,6.35Z"/>
        <path id="Path_101" data-name="Path 101" class="cls-1" d="M71.84,60.05l-4.86,3.61,2.16,2.91,4.72-3.51,1.28,1.72-4.72,3.51,3.01,4.05,4.86-3.61,1.28,1.72-6.69,4.97-9-12.11,6.69-4.97,1.27,1.72Z"/>
        <path id="Path_102" data-name="Path 102" class="cls-1" d="M83.49,49.78l5.25,11.84,4.06-1.8,.87,1.96-6.14,2.72-6.12-13.8,2.08-.92Z"/>
        <path id="Path_103" data-name="Path 103" class="cls-1" d="M102.26,43.09l3.68,14.64-2.21,.55-3.68-14.64,2.21-.56Z"/>
        <path id="Path_104" data-name="Path 104" class="cls-1" d="M124.87,47.06l6.23-.32,.02,.5c.07,1.02-.02,2.04-.25,3.03-.23,.85-.64,1.65-1.2,2.33-1.26,1.62-3.17,2.58-5.22,2.64-2.04,.13-4.05-.6-5.54-2.01-3.2-2.95-3.39-7.94-.44-11.14,2.22-2.4,5.69-3.18,8.72-1.96,1.13,.53,2.15,1.28,3,2.2l-1.54,1.63c-1.08-1.47-2.82-2.31-4.65-2.24-1.51,.04-2.94,.71-3.93,1.85-1.02,1.13-1.53,2.63-1.41,4.14,.15,3.05,2.7,5.43,5.76,5.38,1.11-.06,2.16-.51,2.95-1.29,.81-.72,1.3-1.73,1.36-2.81l-3.76,.19-.11-2.14Z"/>
        <path id="Path_105" data-name="Path 105" class="cls-1" d="M145.93,46.9l6.41,1.15,1.05-5.81,2.24,.4-2.68,14.85-2.24-.4,1.25-6.94-6.41-1.15-1.25,6.94-2.24-.4,2.68-14.85,2.24,.4-1.05,5.81Z"/>
        <path id="Path_106" data-name="Path 106" class="cls-1" d="M172.77,50.97l-4.95,11.97-2.11-.87,4.95-11.97-3.2-1.33,.82-1.98,8.51,3.52-.82,1.98-3.2-1.32Z"/>
        <path id="Path_107" data-name="Path 107" class="cls-1" d="M201.38,76.31l4.09,4.71-.38,.33c-.76,.68-1.61,1.24-2.54,1.67-.82,.34-1.69,.51-2.58,.49-2.05,0-3.99-.91-5.29-2.49-1.36-1.53-2.03-3.56-1.83-5.6,.36-4.34,4.17-7.56,8.5-7.2,3.25,.27,6.01,2.52,6.91,5.66,.28,1.22,.32,2.48,.12,3.72l-2.24-.21c.49-1.76,.08-3.65-1.1-5.04-.96-1.16-2.37-1.87-3.88-1.95-1.52-.11-3.01,.41-4.14,1.44-2.31,2-2.62,5.48-.7,7.85,.73,.84,1.74,1.39,2.84,1.54,1.06,.2,2.16-.04,3.05-.66l-2.47-2.84,1.62-1.4Z"/>
        <path id="Path_108" data-name="Path 108" class="cls-1" d="M220.11,91.46l-8.66,2.76c-.97,.23-1.84,.74-2.52,1.47-1.06,1.55-.66,3.67,.9,4.72,.23,.15,.47,.28,.73,.38,.97,.21,1.98,.12,2.9-.26l8.66-2.76,.69,2.17-9.26,2.95c-1.37,.49-2.89,.41-4.2-.22-2.83-1.43-3.97-4.89-2.54-7.73,.02-.03,.03-.06,.05-.09,.7-1.28,1.89-2.22,3.29-2.61l9.26-2.95,.7,2.17Z"/>
        <path id="Path_109" data-name="Path 109" class="cls-1" d="M224.33,117.19h-15.09v-2.28h15.09v2.28Z"/>
        <path id="Path_110" data-name="Path 110" class="cls-1" d="M209.23,128.57h15.09v3.17c.04,1.22-.11,2.43-.45,3.6-.3,.96-.81,1.84-1.5,2.57-3.02,3.08-7.96,3.12-11.03,.11-.07-.07-.14-.14-.2-.21-.67-.74-1.19-1.61-1.5-2.56-.32-1.15-.46-2.35-.42-3.55v-3.13Zm2.15,2.28v1.03c-.02,.86,.09,1.72,.32,2.55,.73,2.17,2.8,3.6,5.08,3.52,1.52,.06,2.99-.55,4.03-1.66,1-1.24,1.49-2.82,1.38-4.41v-1.03h-10.81Z"/>
        <path id="Path_111" data-name="Path 111" class="cls-1" d="M222.19,159.15v-6.05h-3.63v5.88h-2.14v-5.88h-5.04v6.05h-2.14v-8.33h15.09v8.33h-2.14Z"/>
      </g>
    </g>
  </g>
</svg>