<?xml version="1.0" encoding="UTF-8"?>
<svg id="Layer_1" data-name="Layer 1" xmlns="http://www.w3.org/2000/svg" viewBox="0 0 64 64">
  <defs>
    <style>
      .cls-1 {
        fill: #d67b21;
      }
    </style>
  </defs>
  <g id="Outline">
    <rect class="cls-1" x="53" y="39.03" width="2" height="2.03"/>
    <path class="cls-1" d="M9,29.98v27.02c0,2.76,2.24,5,5,5H53c1.1,0,2-.9,2-2v-16.94h-2v8.94H17V4H52c.55,0,1,.45,1,1V37.03h2V5c0-1.66-1.34-3-3-3H14c-2.76,0-5,2.24-5,5V28h2V7c0-1.66,1.34-3,3-3h1V52h-1c-1.09,0-2.14,.36-3,1.03V29.98h-2Zm5,24.02H53v2H15v2H53v2H14c-1.66,0-3-1.34-3-3s1.34-3,3-3Z"/>
    <path class="cls-1" d="M51,20c0-4.42-3.58-8-8-8-.08,0-.17,0-.26,0-1.1-4.28-5.45-6.85-9.73-5.75-2.82,.72-5.03,2.93-5.75,5.75-.09,0-.17,0-.26,0-4.42,0-8,3.57-8,7.99,0,3.65,2.47,6.84,6,7.75v9.26c0,.55,.45,1,1,1h18c.55,0,1-.45,1-1v-9.26c3.53-.91,5.99-4.09,6-7.74Zm-24,16v-2h16v2H27Zm16-10c-1.21,0-2.39-.36-3.39-1.05-.46-.31-1.08-.2-1.39,.26-.31,.46-.2,1.08,.26,1.39h0c1.33,.92,2.91,1.4,4.52,1.4v4H27v-4c1.63,0,3.21-.49,4.55-1.42,.45-.31,.57-.94,.25-1.39-.31-.45-.94-.57-1.39-.25h0c-2.72,1.91-6.47,1.26-8.38-1.46-1.91-2.72-1.26-6.47,1.46-8.38,1.29-.91,2.88-1.27,4.43-1.02,.55,.08,1.06-.29,1.14-.84,0,0,0-.02,0-.02,.43-3.28,3.43-5.6,6.71-5.17,2.7,.35,4.82,2.47,5.17,5.17,.07,.55,.57,.93,1.12,.86,0,0,.02,0,.02,0,3.27-.53,6.35,1.69,6.89,4.96s-1.69,6.35-4.96,6.89c-.33,.05-.67,.08-1.01,.08Z"/>
    <rect class="cls-1" x="27" y="42" width="16" height="2"/>
    <rect class="cls-1" x="23" y="46" width="24" height="2"/>
  </g>
</svg>