<svg xmlns="http://www.w3.org/2000/svg" width="497" height="499" viewBox="0 0 497 499">
  <g id="Group_164" data-name="Group 164" transform="translate(0 0.039)">
    <rect id="Rectangle_392" data-name="Rectangle 392" width="497" height="499" rx="248.5" transform="translate(0 -0.038)" fill="#fff"/>
    <g id="Group_158" data-name="Group 158" transform="translate(139.799 106.631)">
      <text id="NØRREBRO" transform="translate(0 272.599)" fill="#d17a23" font-size="38" font-family="WorkSans-SemiBold, Work Sans" font-weight="600"><tspan x="0" y="0">NØRREBRO</tspan></text>
      <g id="_4-store-building-svgrepo-com" data-name="4-store-building-svgrepo-com" transform="translate(21.93)">
        <path id="Path_298" data-name="Path 298" d="M211.968,206.746V7.788A3.905,3.905,0,0,0,211.557,0H48.2a3.9,3.9,0,0,0-.126,7.8V206.732a3.905,3.905,0,0,0,0,7.81H211.683a3.9,3.9,0,0,0,.285-7.8ZM55.882,7.81H204.158V206.732H102.663V159.91A3.905,3.905,0,0,0,98.758,156H67.7a3.905,3.905,0,0,0-3.905,3.905v46.822H55.882ZM71.6,187.133a3.9,3.9,0,0,0,0-7.787V163.816H94.853v42.916H71.6Z" transform="translate(-44.166)" fill="#d17a23"/>
        <path id="Path_299" data-name="Path 299" d="M184.405,354.567h31.242a3.905,3.905,0,0,0,3.905-3.905V323.488a3.905,3.905,0,0,0-3.905-3.905H184.405a3.905,3.905,0,0,0-3.905,3.905v27.174A3.905,3.905,0,0,0,184.405,354.567Zm27.336-7.81h-7.81V327.393h7.81ZM188.31,327.393h7.81v19.363h-7.81Z" transform="translate(-113.948 -163.578)" fill="#d17a23"/>
        <path id="Path_300" data-name="Path 300" d="M280.655,354.567H311.9a3.905,3.905,0,0,0,3.905-3.905V323.488a3.905,3.905,0,0,0-3.905-3.905H280.655a3.905,3.905,0,0,0-3.905,3.905v27.174A3.905,3.905,0,0,0,280.655,354.567Zm27.336-7.81h-7.81V327.393h7.81ZM284.56,327.393h7.81v19.363h-7.81Z" transform="translate(-163.214 -163.578)" fill="#d17a23"/>
        <path id="Path_301" data-name="Path 301" d="M184.405,258.567h31.242a3.905,3.905,0,0,0,3.905-3.905V227.488a3.905,3.905,0,0,0-3.905-3.905H184.405a3.905,3.905,0,0,0-3.905,3.905v27.174A3.905,3.905,0,0,0,184.405,258.567Zm27.336-7.81h-7.81V231.393h7.81ZM188.31,231.393h7.81v19.363h-7.81Z" transform="translate(-113.948 -114.441)" fill="#d17a23"/>
        <path id="Path_302" data-name="Path 302" d="M88.092,258.567h31.242a3.905,3.905,0,0,0,3.905-3.905V227.488a3.905,3.905,0,0,0-3.905-3.905H88.092a3.905,3.905,0,0,0-3.905,3.905v27.174A3.905,3.905,0,0,0,88.092,258.567Zm27.336-7.81h-7.81V231.393h7.81ZM92,231.393h7.81v19.363H92Z" transform="translate(-64.651 -114.441)" fill="#d17a23"/>
        <path id="Path_303" data-name="Path 303" d="M280.655,258.567H311.9a3.905,3.905,0,0,0,3.905-3.905V227.488a3.905,3.905,0,0,0-3.905-3.905H280.655a3.905,3.905,0,0,0-3.905,3.905v27.174A3.905,3.905,0,0,0,280.655,258.567Zm27.336-7.81h-7.81V231.393h7.81ZM284.56,231.393h7.81v19.363h-7.81Z" transform="translate(-163.214 -114.441)" fill="#d17a23"/>
        <path id="Path_304" data-name="Path 304" d="M184.405,162.9h31.242A3.905,3.905,0,0,0,219.552,159V131.821a3.905,3.905,0,0,0-3.905-3.905H184.405a3.905,3.905,0,0,0-3.905,3.905V159A3.905,3.905,0,0,0,184.405,162.9Zm27.336-7.81h-7.81V135.726h7.81ZM188.31,135.727h7.81V155.09h-7.81Z" transform="translate(-113.948 -65.474)" fill="#d17a23"/>
        <path id="Path_305" data-name="Path 305" d="M88.092,162.9h31.242A3.905,3.905,0,0,0,123.239,159V131.821a3.905,3.905,0,0,0-3.905-3.905H88.092a3.905,3.905,0,0,0-3.905,3.905V159A3.905,3.905,0,0,0,88.092,162.9Zm27.336-7.81h-7.81V135.726h7.81ZM92,135.727h7.81V155.09H92Z" transform="translate(-64.651 -65.474)" fill="#d17a23"/>
        <path id="Path_306" data-name="Path 306" d="M280.655,162.9H311.9A3.905,3.905,0,0,0,315.8,159V131.821a3.905,3.905,0,0,0-3.905-3.905H280.655a3.905,3.905,0,0,0-3.905,3.905V159A3.905,3.905,0,0,0,280.655,162.9Zm27.336-7.81h-7.81V135.726h7.81ZM284.56,135.727h7.81V155.09h-7.81Z" transform="translate(-163.214 -65.474)" fill="#d17a23"/>
        <path id="Path_307" data-name="Path 307" d="M184.405,66.9h31.242A3.905,3.905,0,0,0,219.552,63V35.822a3.905,3.905,0,0,0-3.905-3.905H184.405a3.905,3.905,0,0,0-3.905,3.905V63A3.905,3.905,0,0,0,184.405,66.9Zm27.336-7.81h-7.81V39.727h7.81ZM188.31,39.727h7.81V59.091h-7.81Z" transform="translate(-113.948 -16.337)" fill="#d17a23"/>
        <path id="Path_308" data-name="Path 308" d="M88.092,66.9h31.242A3.905,3.905,0,0,0,123.239,63V35.822a3.905,3.905,0,0,0-3.905-3.905H88.092a3.905,3.905,0,0,0-3.905,3.905V63A3.905,3.905,0,0,0,88.092,66.9Zm27.336-7.81h-7.81V39.727h7.81ZM92,39.727h7.81V59.091H92Z" transform="translate(-64.651 -16.337)" fill="#d17a23"/>
        <path id="Path_309" data-name="Path 309" d="M280.655,66.9H311.9A3.905,3.905,0,0,0,315.8,63V35.822a3.905,3.905,0,0,0-3.905-3.905H280.655a3.905,3.905,0,0,0-3.905,3.905V63A3.905,3.905,0,0,0,280.655,66.9Zm27.336-7.81h-7.81V39.727h7.81ZM284.56,39.727h7.81V59.091h-7.81Z" transform="translate(-163.214 -16.337)" fill="#d17a23"/>
      </g>
    </g>
  </g>
</svg>
