<?xml version="1.0" encoding="utf-8"?>
<!-- Generator: Adobe Illustrator 26.5.0, SVG Export Plug-In . SVG Version: 6.00 Build 0)  -->
<svg version="1.1" id="Layer_1" xmlns="http://www.w3.org/2000/svg" xmlns:xlink="http://www.w3.org/1999/xlink" x="0px" y="0px"
	 viewBox="0 0 256 256" style="enable-background:new 0 0 256 256;" xml:space="preserve">
<style type="text/css">
	.st0{fill:#D67B21;}
</style>
<g transform="translate(1.4065934065934016 1.4065934065934016) scale(2.81 2.81)">
	<path class="st0" d="M90,45C90,20.2,69.8,0,45,0S0,20.2,0,45s20.2,45,45,45S90,69.8,90,45z M7,45C7,24,24,7,45,7s38,17,38,38
		S66,83,45,83S7,66,7,45z"/>
	<path class="st0" d="M65.5,38.5c0-0.9-0.3-1.8-1-2.5c-1.4-1.4-3.6-1.4-4.9,0L45,50.5L30.5,36c-1.4-1.4-3.6-1.4-4.9,0
		c-1.4,1.4-1.4,3.6,0,5l17,17c1.4,1.4,3.6,1.4,4.9,0l17-17C65.1,40.3,65.5,39.4,65.5,38.5z"/>
</g>
</svg>
