<svg xmlns="http://www.w3.org/2000/svg" width="499" height="499" viewBox="0 0 499 499">
  <g id="Group_162" data-name="Group 162" transform="translate(0 0)">
    <rect id="Rectangle_394" data-name="Rectangle 394" width="499" height="499" rx="249.5" transform="translate(0 0)" fill="#fff"/>
    <g id="Group_161" data-name="Group 161" transform="translate(125.926 113.432)">
      <g id="Group_160" data-name="Group 160" transform="translate(0 0)">
        <g id="building-svgrepo-com_4_" data-name="building-svgrepo-com (4)" transform="translate(32.359)">
          <g id="Group_156" data-name="Group 156">
            <g id="Group_155" data-name="Group 155">
              <path id="Path_284" data-name="Path 284" d="M204.662,387.785a3.1,3.1,0,0,0-3.1-3.1h-9.29V344.431a3.1,3.1,0,0,0-3.1-3.1H170.6a3.1,3.1,0,0,0-3.1,3.1v40.257h-9.29a3.1,3.1,0,0,0-3.1,3.1v9.29H139.632a3.1,3.1,0,1,0,0,6.193h18.58a3.1,3.1,0,0,0,3.1-3.1v-9.29h40.257A3.1,3.1,0,0,0,204.662,387.785Zm-18.58-24.773h-3.1a3.1,3.1,0,1,0,0,6.193h3.1v15.484H173.7V347.527h12.387Z" transform="translate(-86.987 -217.465)" fill="#d17a23"/>
              <path id="Path_285" data-name="Path 285" d="M358.4,369.2a3.1,3.1,0,0,0,3.1,3.1h18.58a3.1,3.1,0,0,0,3.1-3.1V344.43a3.1,3.1,0,0,0-3.1-3.1H361.5a3.1,3.1,0,0,0-3.1,3.1Zm6.194-21.677H376.98v6.194H364.594Zm0,12.387H376.98v6.193H364.594Z" transform="translate(-228.337 -217.464)" fill="#d17a23"/>
              <path id="Path_286" data-name="Path 286" d="M429.694,222.16V88.431a3.1,3.1,0,0,0-6.193,0v131.2a12.345,12.345,0,0,0-20.085,2.1,9.109,9.109,0,0,0-1.592-.139,9.29,9.29,0,1,0,0,18.58H426.6a9.268,9.268,0,0,0,3.1-18.011Zm-3.1,11.817H401.824a3.1,3.1,0,1,1,0-6.193,3.067,3.067,0,0,1,1.678.5,3.1,3.1,0,0,0,4.7-1.9,6.165,6.165,0,0,1,12.021,0,3.1,3.1,0,0,0,4.7,1.9,3.159,3.159,0,0,1,4.775,2.592A3.1,3.1,0,0,1,426.6,233.977Z" transform="translate(-250.084 -54.366)" fill="#d17a23"/>
              <path id="Path_287" data-name="Path 287" d="M182.707,6.194H157.933a3.1,3.1,0,0,0-3.1-3.1,3.1,3.1,0,0,0-3.1-3.1H139.353a3.1,3.1,0,0,0-3.1,3.1v3.1h-6.194V3.1a3.1,3.1,0,0,0-3.1-3.1H114.582a3.1,3.1,0,0,0-3.1,3.1v3.1H49.548V3.1a3.1,3.1,0,0,0-3.1-3.1H34.064a3.1,3.1,0,0,0-3.1,3.1v3.1H3.1a3.1,3.1,0,0,0,0,6.194H34.064a3.1,3.1,0,0,0,3.1-3.1v-3.1h6.194v3.1a3.1,3.1,0,0,0,3.1,3.1h68.131a3.1,3.1,0,0,0,3.1-3.1v-3.1h6.19v3.1a3.1,3.1,0,0,0,3.1,3.1h12.388a3.1,3.1,0,0,0,3.1-3.1v-3.1h3.1a3.1,3.1,0,0,0,3.1,3.1,3.1,3.1,0,0,0,3.1,3.1H179.61V18.58H9.29a3.1,3.1,0,0,0-3.1,3.1V167.793A9.268,9.268,0,0,0,9.29,185.8H34.064a9.29,9.29,0,0,0,0-18.58,9.106,9.106,0,0,0-1.592.139,12.345,12.345,0,0,0-20.085-2.1V24.774h170.32a3.1,3.1,0,0,0,3.1-3.1V9.29A3.1,3.1,0,0,0,182.707,6.194ZM13.812,174.188a3.108,3.108,0,0,0,1.855-2.171,6.165,6.165,0,0,1,12.021,0,3.1,3.1,0,0,0,4.7,1.9,3.158,3.158,0,0,1,4.775,2.592,3.1,3.1,0,0,1-3.1,3.1H9.29a3.1,3.1,0,0,1,0-6.193,3.067,3.067,0,0,1,1.678.5A3.1,3.1,0,0,0,13.812,174.188Z" fill="#d17a23"/>
              <path id="Path_288" data-name="Path 288" d="M85.333,249.738a3.1,3.1,0,0,0,3.1,3.1h18.58a3.1,3.1,0,0,0,3.1-3.1V224.964a3.1,3.1,0,0,0-3.1-3.1H88.43a3.1,3.1,0,0,0-3.1,3.1Zm6.194-21.677h12.387v6.194H91.527Zm0,12.387h12.387v6.194H91.527Z" transform="translate(-54.366 -141.352)" fill="#d17a23"/>
              <path id="Path_289" data-name="Path 289" d="M224.964,133.367h18.58a3.1,3.1,0,0,0,3.1-3.1V105.5a3.1,3.1,0,0,0-3.1-3.1h-18.58a3.1,3.1,0,0,0-3.1,3.1v24.774A3.1,3.1,0,0,0,224.964,133.367Zm3.1-24.774h12.387v6.194H228.06Zm0,12.387h12.387v6.194H228.06Z" transform="translate(-141.352 -65.239)" fill="#d17a23"/>
              <path id="Path_290" data-name="Path 290" d="M274.511,494.933H224.964a3.1,3.1,0,0,0,0,6.193h49.548a3.1,3.1,0,0,0,0-6.193Z" transform="translate(-141.352 -315.323)" fill="#d17a23"/>
              <path id="Path_291" data-name="Path 291" d="M358.4,249.738a3.1,3.1,0,0,0,3.1,3.1h18.58a3.1,3.1,0,0,0,3.1-3.1V224.964a3.1,3.1,0,0,0-3.1-3.1H361.5a3.1,3.1,0,0,0-3.1,3.1Zm6.194-21.677H376.98v6.194H364.594Zm0,12.387H376.98v6.194H364.594Z" transform="translate(-228.337 -141.352)" fill="#d17a23"/>
              <path id="Path_292" data-name="Path 292" d="M88.431,133.367h18.58a3.1,3.1,0,0,0,3.1-3.1V105.5a3.1,3.1,0,0,0-3.1-3.1H88.431a3.1,3.1,0,0,0-3.1,3.1v24.774A3.1,3.1,0,0,0,88.431,133.367Zm3.1-24.774h12.387v6.194H91.527Zm0,12.387h12.387v6.194H91.527Z" transform="translate(-54.366 -65.239)" fill="#d17a23"/>
              <path id="Path_293" data-name="Path 293" d="M85.333,369.2a3.1,3.1,0,0,0,3.1,3.1h18.58a3.1,3.1,0,0,0,3.1-3.1V344.43a3.1,3.1,0,0,0-3.1-3.1H88.43a3.1,3.1,0,0,0-3.1,3.1Zm6.194-21.677h12.387v6.194H91.527Zm0,12.387h12.387v6.193H91.527Z" transform="translate(-54.366 -217.464)" fill="#d17a23"/>
              <path id="Path_294" data-name="Path 294" d="M361.5,133.367h18.58a3.1,3.1,0,0,0,3.1-3.1V105.5a3.1,3.1,0,0,0-3.1-3.1H361.5a3.1,3.1,0,0,0-3.1,3.1v24.774A3.1,3.1,0,0,0,361.5,133.367Zm3.1-24.774H376.98v6.194H364.594Zm0,12.387H376.98v6.194H364.594Z" transform="translate(-228.337 -65.239)" fill="#d17a23"/>
              <path id="Path_295" data-name="Path 295" d="M221.867,249.738a3.1,3.1,0,0,0,3.1,3.1h18.58a3.1,3.1,0,0,0,3.1-3.1V224.964a3.1,3.1,0,0,0-3.1-3.1h-18.58a3.1,3.1,0,0,0-3.1,3.1Zm6.193-21.677h12.387v6.194H228.06Zm0,12.387h12.387v6.194H228.06Z" transform="translate(-141.352 -141.352)" fill="#d17a23"/>
            </g>
          </g>
        </g>
        <text id="VESTERBRO" transform="translate(0.074 260.569)" fill="#d17a23" font-size="39" font-family="WorkSans-SemiBold, Work Sans" font-weight="600"><tspan x="0" y="0">VESTERBRO</tspan></text>
      </g>
    </g>
  </g>
</svg>
